<?xml version="1.0" encoding="UTF-8"?>
<svg width="1456px" height="203px" viewBox="0 0 1456 203" version="1.1" xmlns="http://www.w3.org/2000/svg" xmlns:xlink="http://www.w3.org/1999/xlink">
    <!-- Generator: Sketch 50 (54983) - http://www.bohemiancoding.com/sketch -->
    <title>Logo</title>
    <desc>Created with Sketch.</desc>
    <defs>
        <linearGradient x1="50%" y1="0%" x2="50%" y2="100%" id="linearGradient-1">
            <stop stop-color="#0FACF3" offset="0%"></stop>
            <stop stop-color="#D9F3FF" offset="100%"></stop>
        </linearGradient>
        <linearGradient x1="50%" y1="-39.4595733%" x2="50%" y2="118.904377%" id="linearGradient-2">
            <stop stop-color="#FAD961" offset="0%"></stop>
            <stop stop-color="#F76B1C" offset="100%"></stop>
        </linearGradient>
        <linearGradient x1="50%" y1="0%" x2="50%" y2="100%" id="linearGradient-3">
            <stop stop-color="#FAD961" offset="0%"></stop>
            <stop stop-color="#F76B1C" offset="100%"></stop>
        </linearGradient>
        <linearGradient x1="10.8450812%" y1="0%" x2="32.2236687%" y2="91.4857626%" id="linearGradient-4">
            <stop stop-color="#0FACF3" offset="0%"></stop>
            <stop stop-color="#9ADAF5" offset="100%"></stop>
        </linearGradient>
    </defs>
    <g id="Page-1" stroke="none" stroke-width="1" fill="none" fill-rule="evenodd">
        <g id="Logo" transform="translate(-220.000000, -385.000000)">
            <g id="011-molecular-copy-4" transform="translate(244.000000, 398.000000)" fill-rule="nonzero">
                <g id="Group" transform="translate(23.000000, 12.000000)" fill="url(#linearGradient-1)">
                    <path d="M63.9060584,66.3353484 C63.4007213,66.3353484 62.6425551,66.0838194 62.3897261,65.8326096 C61.63156,65.3298707 61.378731,64.3240739 61.63156,63.3182771 L76.0370376,1.96914013 C76.2898666,0.712133512 77.8061989,-0.293663304 79.0697021,0.209075504 C80.3332054,0.460604508 81.3442006,1.96914013 80.8388634,3.22614675 L67.4440601,59.5466189 L117.48463,37.6722139 C118.748133,37.1694751 120.264786,37.6722139 120.770123,38.9292205 C121.275461,40.1862271 120.770123,41.695082 119.50662,42.1978208 L64.6642246,66.3350292 C64.6645454,66.3353484 64.4117164,66.3353484 63.9060584,66.3353484 Z" id="Shape"></path>
                    <path d="M33.8312792,125.673211 C33.325942,125.673211 33.073113,125.673211 32.5677759,125.421682 C31.3042726,124.918943 30.7986146,123.158878 31.5567807,122.153082 L61.884389,62.8155383 C62.3897261,62.0612705 63.1478923,61.5585317 63.9063793,61.5585317 C64.6648663,61.5585317 65.6755406,61.8100607 66.1808777,62.5643285 L110.661455,121.901872 C111.419622,122.907669 111.166793,124.667733 110.156118,125.422001 C109.145123,126.176269 107.375962,125.92474 106.617796,124.919262 L64.4117164,68.598471 L35.8532694,124.416204 C35.6004404,125.170153 34.5894453,125.673211 33.8312792,125.673211 Z" id="Shape"></path>
                    <path d="M63.9060584,66.3353484 C63.6532294,66.3353484 63.4007213,66.3353484 63.1478923,66.0838194 L1.73450959,44.9640014 C0.471006305,44.4612626 -0.287480687,43.2039368 0.218177307,41.6954012 C0.723514453,40.4383945 1.98733859,39.6838075 3.50367088,40.1868655 L64.9170536,61.3070027 C66.1805569,61.8097415 66.9390438,63.0670673 66.4333859,64.5756029 C66.1808777,65.5810805 65.1698826,66.3353484 63.9060584,66.3353484 Z" id="Shape"></path>
                </g>
                <ellipse id="Oval" fill="#FFFFFF" cx="87" cy="76.5" rx="27" ry="26.5"></ellipse>
                <circle id="Oval" fill="#FFFFFF" cx="86.5" cy="76.5" r="13.5"></circle>
                <circle id="Oval" fill="#FFFFFF" cx="25.5" cy="55.5" r="22.5"></circle>
                <path d="M25.5,80 C11.4749838,80 0,68.7497699 0,54.9998413 C0,41.2499127 11.4749838,30 25.5,30 C39.5250162,30 51,41.2499127 51,54.9998413 C51,68.7497699 39.5250162,80 25.5,80 Z M25.5,35.0000317 C14.2801165,35.0000317 5.10006475,44.0000254 5.10006475,54.9998413 C5.10006475,65.9996572 14.2801165,74.9996509 25.5,74.9996509 C36.7198835,74.9996509 45.8999353,65.9996572 45.8999353,54.9998413 C45.8999353,44.0000254 36.7202072,35.0000317 25.5,35.0000317 Z" id="Shape" fill="#FFFFFF"></path>
                <g id="008-link-1-copy" transform="translate(2.000000, 31.000000)">
                    <path d="M24.5,0 C10.9899741,0 0,11.0350273 0,24.6004373 C0,27.9641371 0.735,31.1328557 1.97560741,34.0398985 L4.69655926,38.7739338 C5.23192963,39.5186892 5.73699259,40.2880451 6.3474963,40.970115 C7.04964815,38.621411 8.11331111,36.3814957 9.68748148,34.4316832 C11.539137,32.1367358 13.851937,30.3543885 16.4318778,29.1427714 C14.6974593,27.2057148 13.6111111,24.6715053 13.6111111,21.8670554 C13.6111111,15.8370327 18.4945963,10.9335277 24.5,10.9335277 C30.5054037,10.9335277 35.3888889,15.8370327 35.3888889,21.8670554 C35.3888889,24.6942835 34.2876593,27.2490844 32.5280148,29.1916079 C35.3841704,30.530965 37.9328963,32.5183159 39.8442593,35.120131 C41.1621778,36.9145051 42.0102407,38.9239053 42.6283667,41 C46.5460074,36.6377047 49,30.9232964 49,24.6004373 C49,11.0350273 38.0100259,0 24.5,0 Z" id="Shape" fill="url(#linearGradient-1)"></path>
                    <path d="M24,17 C21.2436667,17 19,19.2436667 19,22 C19,24.7563333 21.2436667,27 24,27 C26.7563333,27 29,24.7563333 29,22 C29,19.2436667 26.7563333,17 24,17 Z" id="Shape" fill="url(#linearGradient-2)"></path>
                    <path d="M35.491293,37.7690444 C32.923427,34.1554111 28.8143317,32 24.4948122,32 C20.3565924,32 16.4901402,33.9147667 13.88241,37.2571556 C12.1930101,39.4184222 11.2633942,42.0356667 11,44.7717222 C14.8782841,47.4297667 19.508525,49 24.4948122,49 C29.4851041,49 34.1195316,47.4284444 38,44.7662444 C37.7613616,42.2493 36.9611674,39.8373778 35.491293,37.7690444 Z" id="Shape" fill="url(#linearGradient-2)"></path>
                </g>
                <circle id="Oval" fill="#FFFFFF" cx="56.5" cy="135.5" r="7.5"></circle>
                <circle id="Oval" fill="#FFFFFF" cx="141.5" cy="52.5" r="17.5"></circle>
                <path d="M141,72 C130.000079,72 121,62.9999207 121,52 C121,41.0000793 130.000079,32 141,32 C151.999921,32 161,41.0000793 161,52 C161,62.9999207 151.999921,72 141,72 Z M141,37.0000793 C132.749901,37.0000793 125.999762,43.7502182 125.999762,52.0003174 C125.999762,60.2504166 132.749901,67.0005554 141,67.0005554 C149.250099,67.0005554 156.000238,60.2504166 156.000238,52.0003174 C156.000238,43.7502182 149.250099,37.0000793 141,37.0000793 Z" id="Shape" fill="#FFFFFF"></path>
                <circle id="Oval" fill="url(#linearGradient-3)" cx="101.5" cy="14.5" r="12.5"></circle>
                <path d="M101,30 C92.7500317,30 86,23.2499683 86,15 C86,6.75003174 92.7500317,0 101,0 C109.249968,0 116,6.75003174 116,15 C116,23.2499683 109.249651,30 101,30 Z M101,4.75022217 C95.500127,4.75022217 91,9.25003174 91,14.7502222 C91,20.2504126 95.4998096,24.7502222 101,24.7502222 C106.499873,24.7502222 111,20.2504126 111,14.7502222 C111,9.25003174 106.499873,4.75022217 101,4.75022217 Z" id="Shape" fill="url(#linearGradient-3)"></path>
                <circle id="Oval" fill="url(#linearGradient-3)" cx="131.5" cy="135.5" r="12.5"></circle>
                <path d="M131,151 C122.750032,151 116,144.249968 116,136 C116,127.750032 122.750032,121 131,121 C139.249968,121 146,127.750032 146,136 C146,144.249968 139.249968,151 131,151 Z M131,125.750222 C125.500127,125.750222 121,130.250032 121,135.750222 C121,141.250095 125.49981,145.750222 131,145.750222 C136.499873,145.750222 141,141.250413 141,135.750222 C141,130.250349 136.499873,125.750222 131,125.750222 Z" id="Shape" fill="url(#linearGradient-3)"></path>
            </g>
            <g id="020-hand-shake-copy-2" transform="translate(306.000000, 461.000000)" fill-rule="nonzero">
                <path d="M13.5331911,2.53002803 C11.6665026,0.689997844 3.73326771,0.230071156 1.16658464,0 C0.933289584,0 0.699885157,0 0.466590105,0.229963344 C0.233295052,0.4600345 0,0.920069 0,1.15003234 L0,21.8499677 C0,22.5399655 0.466699479,23 1.16669401,23 L8.16663932,23 C8.6333388,23 9.09992891,22.7700367 9.33333333,22.3100022 C9.33333333,21.6200043 13.5333005,9.43000647 14,3.45009703 C13.9998906,3.22002587 13.9998906,2.76009919 13.5331911,2.53002803 Z" id="Shape" fill="url(#linearGradient-2)"></path>
                <path d="M34.929295,8.09086832 C32.8165343,7.42853365 30.9150199,6.54545524 29.2247519,5.88312057 C25.4217232,4.11686027 23.7314552,5.00004216 20.3510183,8.53245927 C18.8720956,10.0778723 17.8156658,12.2857236 18.0269121,13.168802 C18.0269121,13.3895457 18.0269121,13.3895457 18.4495039,13.6103929 C19.5059338,14.0519839 20.9848564,14.2727276 22.463779,11.8441326 C22.6750253,11.6233889 22.8863707,11.4025417 23.3088635,11.4025417 C23.9427016,11.4025417 24.1539479,11.181798 24.7877861,10.9609508 C25.2103778,10.740207 25.6328705,10.5193598 26.2667087,10.2986161 C26.477955,10.2986161 26.477955,10.2986161 26.6893004,10.2986161 C26.9005468,10.2986161 27.3231385,10.5193598 27.5343849,10.5193598 C28.5909138,11.6233889 30.4924282,13.168802 32.3939425,14.9350623 C35.3518868,17.3636573 38.309732,20.012996 39.7887536,22 L40,22 C38.5210774,17.584401 35.9857249,10.0778723 34.929295,8.09086832 Z" id="Shape" fill="url(#linearGradient-4)"></path>
                <path d="M48.8571122,1 C39.9428663,1 34.9143531,3.29997844 34.6857112,3.29997844 C34.4571765,3.52994394 34.2285347,3.76001725 34,3.98998275 C34,4.21994825 34,4.67998706 34.2285347,4.90995256 C35.5999571,7.209931 40.171401,19.8600819 40.8571122,23.0800302 C41.0856469,23.540069 41.5428235,24 42,24 L48.8571122,24 C49.5428235,24 50,23.5399612 50,22.8499569 L50,2.1498275 C50,1.46003881 49.5428235,1 48.8571122,1 Z" id="Shape" fill="url(#linearGradient-4)"></path>
                <path d="M37.8154623,23.3090677 C36.9529979,21.4272522 33.2873473,18.7091069 30.0529795,16.2000196 C28.3280507,14.73632 26.6030208,13.4817763 25.3092737,12.4362906 C25.0936829,12.6453485 24.6624001,12.6453485 24.6624001,12.8545045 C24.0155266,13.0635624 23.7999357,13.2727184 22.9373703,13.2727184 C21.2124415,15.3635918 19.0561289,16.1999216 16.6843265,15.3635918 C15.6061702,15.1545339 14.9592966,14.3181061 14.7437058,13.4817763 C14.3124231,11.3909029 16.2530438,8.46360161 17.7624828,7 L13.4499587,7 C12.5874943,11.1818449 11.0780552,16.6181355 10,19.5454367 C10.8624644,20.3817665 11.7250299,21.4272522 12.3719034,21.8454661 C16.4687357,25.1908833 21.2125425,28.5363984 22.0750069,29.1636702 C22.7218805,29.5818841 24.0156276,30 24.6625012,30 C24.878092,30 25.0937839,30 25.3093748,30 L21.859315,26.6544849 C21.4280323,26.236271 21.4280323,25.6089991 21.859315,25.1908833 C22.2905978,24.7727674 22.9374713,24.7726694 23.368653,25.1908833 L27.6811771,29.3727282 C28.1124599,29.7909421 28.5436415,29.5817861 28.9749243,29.5817861 C29.6217978,29.3727282 29.8373887,28.9545143 30.0530806,28.3272424 L25.0936829,23.5181257 C24.6624001,23.0999118 24.6624001,22.47264 25.0936829,22.0545241 C25.5249656,21.6364082 26.1718392,21.6363102 26.6030208,22.0545241 L31.9936002,27.2817567 C32.209191,27.4908146 33.0717565,27.4908146 33.7186301,27.2817567 C33.9342209,27.0726988 34.3655036,26.8635428 34.5810945,26.4454269 L28.5436415,20.5908244 C28.1123588,20.1726106 28.1123588,19.5453387 28.5436415,19.1272228 C28.9749243,18.7091069 29.6217978,18.7090089 30.0529795,19.1272228 L36.3061243,25.1908833 C36.7374071,25.3999412 37.1685887,25.1908833 37.5998715,24.9818253 C37.8154623,24.7726694 38.246745,24.1453975 37.8154623,23.3090677 Z" id="Shape" fill="url(#linearGradient-2)"></path>
            </g>
            <text id="TOGETHRUST" font-family="GothamRounded-Bold, Gotham Rounded" font-size="170" font-weight="bold" letter-spacing="3.4" fill="#FFFFFF">
                <tspan x="421" y="539">TOGETHRUST</tspan>
            </text>
            <text id="€-copy" font-family="GothamRounded-Medium, Gotham Rounded" font-size="20" font-weight="400" letter-spacing="0.103125" fill="#FFFFFF">
                <tspan x="367.248438" y="541">€</tspan>
            </text>
            <text id="€-copy-2" font-family="GothamRounded-Medium, Gotham Rounded" font-size="18" font-weight="400" letter-spacing="0.103125" fill="#FFFFFF">
                <tspan x="337.468437" y="419">€</tspan>
            </text>
            <g id="008-link-1-copy-4" transform="translate(365.000000, 431.000000)" fill-rule="nonzero">
                <path d="M20,0 C8.97140741,0 0,8.88185123 0,19.800352 C0,22.5077201 0.6,25.0581521 1.61274074,27.3979671 L3.83392593,31.2082881 C4.27096296,31.8077255 4.68325926,32.4269631 5.18162963,32.9759462 C5.75481481,31.085526 6.62311111,29.2826672 7.90814815,27.713306 C9.4197037,25.8661532 11.3077037,24.431581 13.4137778,23.456377 C11.9979259,21.8972826 11.1111111,19.857553 11.1111111,17.6003129 C11.1111111,12.7468799 15.0976296,8.80015645 20,8.80015645 C24.9023704,8.80015645 28.8888889,12.7468799 28.8888889,17.6003129 C28.8888889,19.8758867 27.9899259,21.9321899 26.5534815,23.4956844 C28.885037,24.5737035 30.9656296,26.1732786 32.5259259,28.2674225 C33.6017778,29.7116749 34.2940741,31.328997 34.7986667,33 C37.9967407,29.4888842 40,24.8894825 40,19.800352 C40,8.88185123 31.0285926,0 20,0 Z" id="Shape" fill="url(#linearGradient-1)"></path>
                <path d="M20.5,13 C18.0193,13 16,15.0193 16,17.5 C16,19.9807 18.0193,22 20.5,22 C22.9807,22 25,19.9807 25,17.5 C25,15.0193 22.9807,13 20.5,13 Z" id="Shape" fill="url(#linearGradient-2)"></path>
                <path d="M28.9558684,31.4116222 C26.8635331,28.6482556 23.5153813,27 19.9957729,27 C16.6238901,27 13.4734475,28.4642333 11.3486304,31.0201778 C9.97208233,32.6729111 9.21461751,34.6743333 9,36.7666111 C12.1600833,38.7992333 15.9328722,40 19.9957729,40 C24.0619366,40 27.8381368,38.7982222 31,36.7624222 C30.8055539,34.8377 30.1535438,32.9932889 28.9558684,31.4116222 Z" id="Shape" fill="url(#linearGradient-2)"></path>
            </g>
            <g id="008-link-1-copy-5" transform="translate(277.000000, 517.000000)" fill-rule="nonzero">
                <path d="M20,0 C8.97140741,0 0,8.88185123 0,19.800352 C0,22.5077201 0.6,25.0581521 1.61274074,27.3979671 L3.83392593,31.2082881 C4.27096296,31.8077255 4.68325926,32.4269631 5.18162963,32.9759462 C5.75481481,31.085526 6.62311111,29.2826672 7.90814815,27.713306 C9.4197037,25.8661532 11.3077037,24.431581 13.4137778,23.456377 C11.9979259,21.8972826 11.1111111,19.857553 11.1111111,17.6003129 C11.1111111,12.7468799 15.0976296,8.80015645 20,8.80015645 C24.9023704,8.80015645 28.8888889,12.7468799 28.8888889,17.6003129 C28.8888889,19.8758867 27.9899259,21.9321899 26.5534815,23.4956844 C28.885037,24.5737035 30.9656296,26.1732786 32.5259259,28.2674225 C33.6017778,29.7116749 34.2940741,31.328997 34.7986667,33 C37.9967407,29.4888842 40,24.8894825 40,19.800352 C40,8.88185123 31.0285926,0 20,0 Z" id="Shape" fill="url(#linearGradient-1)"></path>
                <path d="M20.5,13 C18.0193,13 16,15.0193 16,17.5 C16,19.9807 18.0193,22 20.5,22 C22.9807,22 25,19.9807 25,17.5 C25,15.0193 22.9807,13 20.5,13 Z" id="Shape" fill="url(#linearGradient-2)"></path>
                <path d="M28.9558684,31.4116222 C26.8635331,28.6482556 23.5153813,27 19.9957729,27 C16.6238901,27 13.4734475,28.4642333 11.3486304,31.0201778 C9.97208233,32.6729111 9.21461751,34.6743333 9,36.7666111 C12.1600833,38.7992333 15.9328722,40 19.9957729,40 C24.0619366,40 27.8381368,38.7982222 31,36.7624222 C30.8055539,34.8377 30.1535438,32.9932889 28.9558684,31.4116222 Z" id="Shape" fill="url(#linearGradient-2)"></path>
            </g>
            <path d="M330.5,503 C314.224182,503 301,489.999956 301,474 C301,458.000044 314.224182,445 330.5,445 C346.775818,445 360,458.000044 360,474 C360,489.999956 346.77614,503 330.5,503 Z M330.5,449.999748 C317.021407,449.999748 306.086274,460.749858 306.086274,473.999683 C306.086274,487.249508 317.02173,497.999617 330.5,497.999617 C343.97827,497.999617 354.913726,487.249508 354.913726,473.999683 C354.913726,460.749858 343.978593,449.999748 330.5,449.999748 Z" id="Shape-Copy" fill="url(#linearGradient-4)" fill-rule="nonzero"></path>
        </g>
    </g>
</svg>