<?xml version="1.0" encoding="UTF-8"?>
<svg width="80px" height="80px" viewBox="0 0 80 80" version="1.1" xmlns="http://www.w3.org/2000/svg" xmlns:xlink="http://www.w3.org/1999/xlink">
    <!-- Generator: Sketch 50 (54983) - http://www.bohemiancoding.com/sketch -->
    <title>004-employees</title>
    <desc>Created with Sketch.</desc>
    <defs></defs>
    <g id="Page-1" stroke="none" stroke-width="1" fill="none" fill-rule="evenodd">
        <g id="2.1.-Home-V2" transform="translate(-1000.000000, -948.000000)" fill-rule="nonzero">
            <g id="Icones" transform="translate(126.000000, 811.000000)">
                <g id="004-employees" transform="translate(883.000000, 143.000000)">
                    <path d="M22.9530232,15.0678499 C21.786217,17.5817694 20.0575769,19 20.0575769,19 L4.86059674,19 C4.86059674,19 2.76547557,17.9967186 1.66214613,15.2958065 C0.942656676,13.5344842 0.644834159,11.0507774 1.62431918,7.65306657 C4.10535304,-0.955529112 20.7290054,-1.08658717 23.3347905,6.54431266 C24.5271169,10.038786 23.9406695,12.9442466 22.9530232,15.0678499 Z" id="Shape" fill="#FAD961"></path>
                    <g id="Group" transform="translate(2.000000, 13.000000)" fill="#FFA816">
                        <path d="M21.8847057,0.801111111 C20.6853996,3.32165692 18.9086105,4.74362573 18.9086105,4.74362573 L14.7405326,4.74362573 C14.7405326,2.13888889 16.808793,0.0204678363 19.350411,0.0204678363 C20.2856753,0.0204678363 21.1578253,0.307290448 21.8847057,0.801111111 Z" id="Shape"></path>
                        <path d="M7.45548401,4.74348928 L3.28833821,4.74348928 C3.28833821,4.74348928 1.13486016,3.73756335 0.000798915989,1.02953216 C0.784535501,0.397758285 1.77346034,0.0204678363 2.84653767,0.0204678363 C5.38828889,0.0204678363 7.45548401,2.13902534 7.45548401,4.74348928 Z" id="Shape"></path>
                    </g>
                    <path d="M2,38.9998706 C2,36.9542573 2.61483733,35.0499082 3.66987905,33.4656024 C5.4625186,30.7740809 8.52467499,29 12.0006468,29 C14.761529,29 17.2620141,30.1195053 19.0718582,31.9283848 C19.5405213,32.3970661 19.9632624,32.912706 20.3301209,33.4668961 C21.3851627,35.0513311 22,36.9543867 22,39 L2,38.9998706 Z" id="Shape" fill="#0FACF3"></path>
                    <path d="M21,33.2288407 L17.1114648,36.6196288 C16.5219808,37.1337519 15.6023805,37.1255465 15.024248,36.6019933 L12.50066,34.3168517 L9.97707191,36.6019933 C9.39893939,37.1254241 8.47801916,37.1336295 7.88985512,36.6196288 L4,33.227616 C5.82916906,30.6795344 8.95372455,29 12.500528,29 C15.3176701,29 17.8691088,30.0598432 19.715833,31.7723216 C20.1941783,32.2159029 20.6255338,32.7041852 21,33.2288407 Z" id="Shape" fill="#0FACF3"></path>
                    <path d="M19,32.2778034 L15.4335529,36 L11.9999367,32.2778034 L8.56644709,36 L5,32.2778034 C6.77500068,30.2550629 9.25615585,29 11.9999367,29 C14.7005792,29 17.1459333,30.2153022 18.9147352,32.1817032 C18.9433255,32.2131746 18.9716627,32.244646 19,32.2778034 Z" id="Shape" fill="#0FACF3"></path>
                    <g id="Group" transform="translate(2.000000, 15.000000)" fill="#E4EAF8">
                        <path d="M10.9215215,17.949883 C9.7160083,17.949883 8.73869607,16.9038402 8.73869607,15.6135478 L8.73869607,11.5841131 L13.104347,11.5841131 L13.104347,15.6135478 C13.104347,16.9038402 12.1270348,17.949883 10.9215215,17.949883 Z" id="Shape"></path>
                        <ellipse id="Oval" cx="18.781325" cy="3.24224172" rx="2.9023598" ry="3.10647173"></ellipse>
                        <ellipse id="Oval" cx="2.97948919" cy="3.24224172" rx="2.9023598" ry="3.10647173"></ellipse>
                    </g>
                    <path d="M20,10 L19.6189247,14.7647098 L19.1055315,21.1790324 C18.7975215,25.0348187 15.7082553,28 11.9993545,28 C8.29161557,28 5.20247854,25.0348187 4.89446847,21.1790324 L4.35628994,14.4535638 L4,10 L20,10 Z" id="Shape" fill="#FFFFFF"></path>
                    <path d="M20,10 L19.6189278,14.6485925 C18.3965791,14.882908 17.1557707,15 15.8988261,15 C11.7617653,15 8.45255557,13.7190843 6.71681794,12.8715799 C6.14275687,13.3565064 5.35595627,13.9055642 4.35628706,14.345152 L4,10 L20,10 Z" id="Shape" fill="#E4EAF8"></path>
                    <g id="Group" transform="translate(3.000000, 8.000000)">
                        <path d="M15.6429581,0.0391567396 C18.1452413,1.94351455 22.5242043,2.85817919 22.5242043,2.85817919 C12.3898725,8.71500253 3.38154848,2.92006787 3.38154848,2.92006787 C3.38154848,2.92006787 2.22903863,4.42957332 0.00809420144,5.20088225 L0.00809420144,0.0391567396 L15.6429581,0.0391567396 Z" id="Shape" fill="#FFC843"></path>
                        <path d="M56.4472637,34.310896 C55.1369169,37.0156018 53.1956141,38.541532 53.1956141,38.541532 L36.129382,38.541532 C36.129382,38.541532 33.7765804,37.4622251 32.5375148,34.5562169 C31.7295307,32.6613198 31.3950574,29.988938 32.494955,26.333433 C35.2810574,17.0716815 53.9494192,16.9305595 56.8758647,25.1407292 C58.2150634,28.9003018 57.5564304,32.0261396 56.4472637,34.310896 Z" id="Shape" fill="#FAD961"></path>
                    </g>
                    <g id="Group" transform="translate(36.000000, 41.000000)" fill="#FFA816">
                        <path d="M23.9729268,0.883342194 C22.6607727,3.43673578 20.7167922,4.87729931 20.7167922,4.87729931 L16.1566088,4.87729931 C16.1566088,2.2386851 18.4194439,0.0926634769 21.200238,0.0926634769 C22.2234751,0.0926634769 23.1776859,0.383182704 23.9729268,0.883342194 Z" id="Shape"></path>
                        <path d="M8.18615805,4.87717526 L3.62715122,4.87717526 C3.62715122,4.87717526 1.27110439,3.85824916 0.0303297561,1.11481481 C0.887799024,0.474853801 1.96973463,0.0925394294 3.14370537,0.0925394294 C5.92436878,0.0926634769 8.18615805,2.23856105 8.18615805,4.87717526 Z" id="Shape"></path>
                    </g>
                    <path d="M58,67 L37,67 C37.3041612,66.1108891 37.6970091,65.268874 38.1693108,64.4887969 C40.1777633,61.1808192 43.6076723,59 47.5006502,59 C50.5942783,59 53.3945384,60.3754817 55.4227568,62.5998287 C55.9470741,63.1752533 56.4209363,63.8093335 56.8319896,64.4903668 C57.3045514,65.268874 57.6973992,66.1108891 58,67 Z" id="Shape" fill="#FAD961"></path>
                    <g id="Group" transform="translate(36.000000, 43.000000)" fill="#E4EAF8">
                        <path d="M12.4996482,18.9810185 C11.1197897,18.9810185 10.0012899,17.8737222 10.0012899,16.5076852 L10.0012899,12.241963 L14.9980066,12.241963 L14.9980066,16.5076852 C14.9977447,17.8737222 13.8793758,18.9810185 12.4996482,18.9810185 Z" id="Shape"></path>
                        <ellipse id="Oval" cx="21.4962262" cy="3.41172222" rx="3.32184764" ry="3.28857407"></ellipse>
                        <ellipse id="Oval" cx="3.41075672" cy="3.41172222" rx="3.32184764" ry="3.28857407"></ellipse>
                    </g>
                    <path d="M57,38 L56.6271422,42.3776568 L56.5709724,43.0302861 L55.9938965,49.8005345 C55.9733052,50.0453822 55.9411151,50.2869125 55.8974565,50.5239771 C55.227329,54.2354798 51.9206108,57 47.9988922,57 C44.1023263,57 40.8128109,54.2680156 40.115185,50.590197 C40.0647495,50.3318246 40.0291709,50.0678383 40.0062338,49.8005345 L39.4015291,42.7011006 L39.3671235,42.3012296 L39,38 L57,38 Z" id="Shape" fill="#FFFFFF"></path>
                    <g id="Group" transform="translate(39.000000, 38.000000)" fill="#E4EAF8">
                        <path d="M0.684019255,8.09471085 L1.00190372,11.8576816 C1.02460976,12.1244912 1.05982991,12.3879896 1.10975738,12.6458843 C1.97529589,13.22446 3.01796727,13.5619519 4.13907766,13.5619519 C6.17229974,13.5619519 7.94530552,12.4507758 8.87328562,10.8114568 C9.80010462,12.4507758 11.5742715,13.5619519 13.6074936,13.5619519 C14.7706617,13.5619519 15.8497144,13.1986069 16.7333145,12.5797869 C16.7765334,12.3431605 16.8082702,12.1020767 16.8287831,11.8576816 L17.1469255,8.09471085 L0.684019255,8.09471085 Z" id="Shape"></path>
                        <path d="M17.8246232,0.0794697856 L17.4003042,5.09956595 C16.0391033,5.35249383 14.6571316,5.47908512 13.2573562,5.47908512 C8.65009564,5.47908512 4.96462259,4.09587784 3.03164249,3.1805744 C2.39239024,3.70425991 1.51614377,4.29722677 0.402903081,4.77188044 L0.006063543,0.079597141 L17.8246232,0.079597141 L17.8246232,0.0794697856 Z" id="Shape"></path>
                    </g>
                    <path d="M55.3596043,35 C58.1379892,37.101096 63,38.1102726 63,38.1102726 C51.7476651,44.5721512 41.7456618,38.1784444 41.7456618,38.1784444 C41.7456618,38.1784444 40.465932,39.8439696 38,40.694946 L38,35 L55.3596043,35 Z" id="Shape" fill="#FFC843"></path>
                    <g id="Group" transform="translate(39.000000, 42.000000)" fill="#FFFFFF">
                        <ellipse id="Oval" cx="3.73981956" cy="4.02247563" rx="3.70419365" ry="3.92996101"></ellipse>
                        <ellipse id="Oval" cx="13.1786261" cy="4.02247563" rx="3.70419365" ry="3.92996101"></ellipse>
                    </g>
                    <path d="M11.7244997,39.0292007 C11.7244997,38.4929311 11.2856826,38.0584014 10.7444139,38.0584014 L3.50693694,38.0584014 C3.68857953,36.3629975 4.3462825,34.7717927 5.41313866,33.4363611 L8.35940752,36.1793222 C8.74190237,36.5354114 9.33975476,36.5295866 9.715193,36.1666371 L12.5775665,33.398953 L15.43994,36.1666371 C15.6300767,36.3505712 15.877189,36.4427324 16.1245627,36.4427324 C16.3656638,36.4427324 16.6068956,36.3551016 16.7957255,36.1793222 L19.7289265,33.4485285 C20.7712152,34.7597547 21.4557072,36.3513479 21.6454518,38.0584014 L14.3696862,38.0584014 C13.8284175,38.0584014 13.3896003,38.4929311 13.3896003,39.0292007 C13.3896003,39.5654702 13.8284175,40 14.3696862,40 L22.6793771,40 C23.2206459,40 23.659463,39.5654702 23.659463,39.0292007 C23.659463,36.5246679 22.7853571,34.0750176 21.19801,32.1314774 C20.9891863,31.8758336 20.768471,31.6309333 20.5382161,31.3958704 C20.5327276,31.3899162 20.5281539,31.3834442 20.5225348,31.3774899 C20.4992741,31.3530258 20.4750986,31.3299855 20.4501391,31.3084985 C19.1551189,30.0156527 17.5489542,29.0543025 15.7952538,28.5263171 L15.7952538,27.8273416 C16.6287189,27.4694402 17.4039015,26.9742031 18.0866946,26.3519855 C19.3635505,25.1881913 20.2223671,23.6705084 20.5652665,22.0065583 C20.5883965,22.0069467 20.6112652,22.0091471 20.6343952,22.0091471 C22.8155437,22.0091471 24.5900219,20.2514826 24.5900219,18.0910011 C24.5900219,17.1038924 24.218896,16.2016962 23.6084985,15.5119109 C24.188448,14.514447 24.6096236,13.4712908 24.8653607,12.3971984 C25.4087203,12.1467322 25.9566536,11.8666242 26.5078539,11.5529913 C26.8609462,11.35223 27.0518669,10.9562734 26.987704,10.5579868 C26.923541,10.159959 26.6176236,9.84244294 26.2190553,9.76050748 C26.2059875,9.75778924 25.7866414,9.67015843 25.1467107,9.49774447 C25.1004506,8.31220435 24.8620937,7.11074312 24.4291571,5.91536556 C23.7236259,3.96677718 22.1143249,2.38100887 19.7751866,1.32956849 C17.7321649,0.41145122 15.1784531,-0.0582862077 12.5877594,0.0057865469 C6.60400835,0.154642442 1.92533967,2.90653489 0.668346851,7.01689918 C-0.608247689,11.1922423 0.155173879,14.0516993 1.19903069,15.845607 C0.748191181,16.4819336 0.482522566,17.2559843 0.482522566,18.0907422 C0.482522566,20.2510943 2.25647803,22.0088883 4.43684243,22.0088883 C4.46010314,22.0088883 4.48310249,22.0066878 4.50636319,22.0062995 C4.84926258,23.6703789 5.70807917,25.1880618 6.98493507,26.3517266 C7.69046623,26.9946546 8.49492073,27.5014119 9.36014055,27.8617726 L9.36014055,28.52334 C7.62290564,29.0431706 6.03843345,29.9822572 4.74079974,31.267466 C4.71361869,31.2943895 4.68839781,31.3227369 4.66147812,31.3499192 C4.65193862,31.3592389 4.64200708,31.3675231 4.63272893,31.3772311 C4.62567231,31.3846091 4.6197918,31.3926344 4.61299654,31.4001419 C2.60251368,33.4575893 1.49514731,36.158353 1.49514731,39.0288124 C1.49514731,39.5650819 1.93396443,39.9996117 2.4752332,39.9996117 L10.7444139,39.9996117 C11.2856826,40 11.7244997,39.5654702 11.7244997,39.0292007 Z M9.01776388,34.1278291 L6.78538958,32.0495419 C7.58200339,31.399883 8.47976206,30.8913136 9.44299048,30.5431203 C9.6262012,31.3290794 10.1031763,32.0046263 10.7533,32.4496407 L9.01776388,34.1278291 Z M16.1372385,34.1278291 L14.4015717,32.4495113 C15.0513033,32.0048852 15.5280171,31.3299855 15.7114891,30.544803 C16.6859559,30.8999861 17.5788795,31.4158042 18.3608573,32.0575672 L16.1372385,34.1278291 Z M20.7888568,20.0599116 L21.1165975,16.1754199 C21.9840388,16.3900313 22.6294581,17.1664118 22.6294581,18.0911305 C22.6295887,19.1292386 21.8169015,19.9812121 20.7888568,20.0599116 Z M21.9844309,14.4084357 C21.7588804,14.327018 21.5236598,14.2660518 21.2811212,14.2264432 L21.3297335,13.6510828 C21.7211145,13.5521907 22.1169385,13.4398369 22.5169442,13.3119502 C22.3647042,13.6830545 22.1864592,14.0487222 21.9844309,14.4084357 Z M2.54423124,7.58009223 C3.76842386,3.57716306 8.74621475,2.0438179 12.6368944,1.94686741 C16.7184947,1.84422157 21.3761242,3.23583002 22.5838514,6.57149646 C22.8624571,7.34075784 23.0465826,8.10963089 23.1355744,8.86970203 C21.9643064,8.44863401 20.6827461,7.87909841 19.722654,7.15993028 C19.2908935,6.83658939 18.6760529,6.92111365 18.3497497,7.34878311 C18.0233157,7.77645257 18.1086486,8.3853379 18.5404091,8.70867879 C19.9185405,9.74096206 21.7814878,10.4878303 23.2784056,10.9723239 C22.3026321,11.3746231 21.3116999,11.68502 20.308092,11.9081744 C20.2319066,11.9160703 20.1580735,11.9328975 20.087638,11.957491 C17.7563403,12.444444 15.3553913,12.4498805 12.9051765,11.9688818 C9.58242403,11.3167635 7.406372,9.9668347 7.38637825,9.95427903 C6.95801537,9.68323186 6.39126437,9.78134731 6.08142656,10.1806694 C6.0716257,10.1933545 5.05416587,11.4547464 3.16207739,12.1014282 C2.65034187,12.276431 2.37866207,12.8288805 2.5552082,13.3357672 C2.72796468,13.831522 3.26544378,14.0988155 3.76790114,13.9464647 L3.79142321,14.2261843 C3.41467819,14.2877977 3.05544404,14.401446 2.72234552,14.5609159 C1.75911711,12.6911564 1.69769839,10.3486824 2.54423124,7.58009223 Z M2.44256367,18.0911305 C2.44256367,17.1657646 3.08968171,16.3867953 3.95542424,16.1739961 L4.28264225,20.0599116 C3.25498953,19.981471 2.44256367,19.1294975 2.44256367,18.0911305 Z M6.31939141,20.890398 L6.31233479,20.8058737 C6.31207343,20.8030261 6.31194276,20.8003078 6.3116814,20.7974602 L5.83339949,15.1171192 C5.83326881,15.1141421 5.83287677,15.111165 5.83261542,15.1080584 L5.65946691,13.0519055 C6.25339896,12.6814485 6.7171756,12.2984358 7.04491632,11.9907571 C8.01454796,12.4941489 9.91656798,13.3507822 12.4406158,13.8566334 C13.5899299,14.086907 14.9480676,14.2563438 16.4564851,14.2563438 C17.3637833,14.2563438 18.3257049,14.1948599 19.3291822,14.0487222 L19.2403211,15.1022336 C19.239929,15.1083173 19.239145,15.1142715 19.2387529,15.1203552 L18.7518463,20.8902686 C18.4847402,24.0668534 15.7542209,26.5550767 12.5356188,26.5550767 C9.31701677,26.5552062 6.58649748,24.0669828 6.31939141,20.890398 Z M12.5354882,28.4968048 C12.9740439,28.4968048 13.4080259,28.4603027 13.8348207,28.3927351 L13.8348207,29.8261526 C13.8348207,30.5129608 13.2708139,31.0716234 12.5774358,31.0716234 C11.8840577,31.0716234 11.320051,30.5129608 11.320051,29.8261526 L11.320051,29.2744798 C11.320051,29.2641246 11.3203123,29.2538988 11.320051,29.2434142 L11.320051,28.4063263 C11.7197953,28.4654803 12.1256816,28.4968048 12.5354882,28.4968048 Z" id="Shape" fill="#434C54"></path>
                    <g id="Group" transform="translate(7.000000, 17.000000)" fill="#969BA1">
                        <path d="M1.03236547,0.0674074074 C0.49517228,0.0674074074 0.0596593109,0.525477583 0.0596593109,1.09079922 L0.0596593109,1.25727096 C0.0596593109,1.82259259 0.49517228,2.28066277 1.03236547,2.28066277 C1.56955865,2.28066277 2.00507162,1.82259259 2.00507162,1.25727096 L2.00507162,1.09079922 C2.00507162,0.525477583 1.56968835,0.0674074074 1.03236547,0.0674074074 Z" id="Shape"></path>
                        <path d="M8.63659311,2.28066277 C9.1737863,2.28066277 9.60929926,1.82259259 9.60929926,1.25727096 L9.60929926,1.09079922 C9.60929926,0.525477583 9.1737863,0.0674074074 8.63659311,0.0674074074 C8.09939992,0.0674074074 7.66388695,0.525477583 7.66388695,1.09079922 L7.66388695,1.25727096 C7.66388695,1.82245614 8.09939992,2.28066277 8.63659311,2.28066277 Z" id="Shape"></path>
                        <path d="M7.32655246,6.94896686 C7.75324623,6.60551657 7.83456446,5.96323587 7.50812427,5.51430799 C7.18181378,5.06538012 6.5713434,4.98009747 6.14451994,5.32327485 C5.86308362,5.54964912 5.42108595,5.68487329 4.96222803,5.68487329 C4.50337011,5.68487329 4.06137244,5.54964912 3.77993612,5.32327485 C3.35311266,4.98009747 2.74264228,5.06565302 2.41633178,5.51430799 C2.0898916,5.96323587 2.17120983,6.60551657 2.5979036,6.94896686 C3.22510453,7.4537037 4.06487418,7.73165692 4.96209834,7.73165692 C5.85932249,7.73165692 6.69922184,7.45384016 7.32655246,6.94896686 Z" id="Shape"></path>
                    </g>
                    <path d="M63.9877691,37.8217481 C63.9235724,37.4183131 63.6162424,37.0964836 63.2160963,37.0131726 C63.2008677,37.0100239 62.6946461,36.9025724 61.931638,36.6927862 C61.8887089,35.3410496 61.6203695,33.9672716 61.1293766,32.5978232 C60.3663684,30.4730658 58.6390975,28.7291772 56.1341149,27.5548208 C52.0818484,25.655331 46.3334246,25.48005 41.8291558,27.1183238 C41.3180768,27.3042319 41.0547261,27.8689096 41.240752,28.3795336 C41.4266467,28.8902888 41.9918136,29.1528167 42.5027613,28.9675647 C46.5471509,27.4963063 51.6889228,27.6446916 55.2978517,29.3366256 C56.7066336,29.996947 58.5403738,31.2142053 59.2756816,33.2620804 C59.6122874,34.2008047 59.8243071,35.1374297 59.9158103,36.060935 C58.5504825,35.5762882 57.0264354,34.907439 55.8984646,34.0550433 C55.4645792,33.7270474 54.8470309,33.8129823 54.519221,34.2464617 C54.1912798,34.6799411 54.2770066,35.2970981 54.7107607,35.6248316 C56.3319562,36.8498307 58.5587532,37.7170518 60.2692201,38.256933 C59.0774465,38.7726738 57.8659807,39.1682368 56.6370544,39.4432286 C56.5701008,39.4499197 56.5048539,39.4633019 56.4422326,39.4828505 C53.8011111,40.0459538 51.0808268,40.0565809 48.303435,39.5054166 C44.5651939,38.7637523 42.1182377,37.2306995 42.0952634,37.2162677 C41.6650539,36.9415383 41.0958172,37.0411179 40.7842862,37.4457336 C40.7732586,37.4601654 39.6128612,38.9118752 37.4636515,39.6528835 C36.9495531,39.8301325 36.6767501,40.3902183 36.8539802,40.9039911 C37.0313415,41.4175014 37.5917823,41.6907876 38.1058807,41.5132762 C38.1394888,41.5017308 38.1715215,41.4891357 38.2047357,41.4771967 L38.2518658,42.0427928 C37.7669118,42.1107535 37.3078204,42.2597949 36.8881134,42.4756162 C35.7648687,40.3310478 35.671265,37.5661737 36.6284385,34.4079669 C37.0803095,32.9155856 38.0269805,31.6266929 39.442064,30.5769749 C39.878575,30.252915 39.969947,29.6366763 39.6458129,29.2003105 C39.3216788,28.7639448 38.7050496,28.672762 38.2682759,28.9966907 C36.5066093,30.3036887 35.3207433,31.9325163 34.7437611,33.8376476 C33.3105608,38.5665612 34.188309,41.7831512 35.363016,43.783139 C34.8460294,44.4942341 34.5400122,45.3680151 34.5400122,46.3123809 C34.5400122,48.6903511 36.4751017,50.6248708 38.8537915,50.6248708 C38.9102426,50.6248708 38.9662998,50.6206725 39.0224883,50.6184421 C39.3891575,52.5121592 40.3476439,54.2404351 41.7833385,55.5601594 C42.5820553,56.2943454 43.4952495,56.8693878 44.4778917,57.2726915 L44.4778917,58.1820273 C43.2775848,58.5363941 42.1409494,59.0695842 41.0920101,59.7780553 C40.6414519,60.0824355 40.5231673,60.6940822 40.8276091,61.144355 C41.0179673,61.4257755 41.3281855,61.5774408 41.6443114,61.5774408 C41.8340132,61.5774408 42.0258155,61.522731 42.1947748,61.4085885 C42.9299513,60.9118715 43.7164589,60.5188012 44.5416945,60.2287217 C44.8521753,61.8359015 46.2697531,63.0536847 47.9672231,63.0536847 C49.6656121,63.0536847 51.083715,61.8345895 51.3932768,60.2262289 C52.8426247,60.7340977 54.166205,61.5632713 55.268182,62.6637631 C55.9663371,63.362132 56.5651121,64.1653283 57.0379882,65.0318935 L38.8965893,65.0318935 C39.1393288,64.5872622 39.4156764,64.1592932 39.7239254,63.7508727 C40.0514728,63.3169998 39.9649583,62.6999739 39.5308103,62.3727652 C39.0966623,62.0454253 38.4792453,62.131885 38.1518292,62.565758 C37.4318814,63.5197012 36.8576561,64.5649585 36.4450383,65.6726662 C36.33253,65.9746849 36.3751965,66.3126518 36.5591219,66.5774101 C36.7430473,66.8421684 37.0451261,67 37.3676847,67 L58.5666301,67 C58.8890575,67 59.1911363,66.8422996 59.3750617,66.5775413 C59.5591184,66.3129142 59.6019162,65.9750784 59.4895392,65.6730598 C58.8807868,64.0366227 57.9027395,62.5152466 56.6604225,61.2722734 C55.2005721,59.8143973 53.4139619,58.7557577 51.4564232,58.1794033 L51.4564232,57.2341192 C52.4036194,56.8329146 53.284387,56.2712545 54.0577665,55.5602906 C55.4934611,54.2405663 56.4518162,52.5122904 56.8183542,50.6185733 C56.8745427,50.6208037 56.9305999,50.625002 56.9870509,50.625002 C59.3657407,50.625002 61.3009616,48.6904823 61.3009616,46.3125121 C61.3009616,45.1971949 60.8752156,44.1794892 60.1777169,43.4131596 C60.8518475,42.2587453 61.3371953,41.0489652 61.6262772,39.8021873 C62.2476326,39.5148629 62.8746331,39.1919837 63.5053095,38.8301387 C63.8602947,38.6263876 64.0518344,38.225183 63.9877691,37.8217481 Z M52.694933,43.0136606 C54.2369657,43.0136606 55.4914919,44.2673921 55.4914919,45.8083168 C55.4914919,47.3493727 54.2369657,48.6031042 52.694933,48.6031042 C51.1530316,48.6031042 49.8985055,47.3493727 49.8985055,45.8083168 C49.8986367,44.2672609 51.1530316,43.0136606 52.694933,43.0136606 Z M55.6131899,42.0469911 C55.4464623,41.9174984 55.2710702,41.7990262 55.0878012,41.6922308 C55.2735646,41.6686151 55.460772,41.6423754 55.6492923,41.6133806 L55.6131899,42.0469911 Z M41.7547192,39.2848722 C42.8087785,39.8435148 44.9586446,40.8370799 47.8363354,41.4190758 C48.5488002,41.5631316 49.3355703,41.6843589 50.1807607,41.7650459 C49.0975569,42.4401926 48.3039602,43.5370109 48.0322074,44.8243291 L47.723302,44.8243291 C47.2684116,42.6688713 45.3507825,41.0456853 43.0605764,41.0456853 C41.9983777,41.0456853 41.0162606,41.3950665 40.2230577,41.9845407 L40.1046418,40.5628753 C40.8283968,40.1147018 41.3797792,39.6467172 41.7547192,39.2848722 Z M40.2641488,45.8081856 C40.2641488,44.2672609 41.518675,43.0135294 43.0607077,43.0135294 C44.6026091,43.0135294 45.8571353,44.2672609 45.8571353,45.8081856 C45.8571353,47.3492415 44.6026091,48.602973 43.0607077,48.602973 C41.5185437,48.602973 40.2641488,47.3492415 40.2641488,45.8081856 Z M36.5092349,46.3122497 C36.5092349,45.1693808 37.3318449,44.2162247 38.4157051,44.0102433 L38.4616536,44.5619324 C38.3536089,44.9594634 38.2950574,45.3769366 38.2950574,45.8081856 C38.2950574,46.5178375 38.4523326,47.1910163 38.7319623,47.7966279 L38.8033794,48.6541403 C37.5338871,48.6269823 36.5092349,47.5878913 36.5092349,46.3122497 Z M49.4877256,58.9177877 C49.4877256,58.9208053 49.4877256,58.9238228 49.4877256,58.9268404 L49.4877256,59.5663012 C49.4877256,60.4041339 48.8058494,61.0855781 47.9674856,61.0855781 C47.1291219,61.0855781 46.4472457,60.4041339 46.4472457,59.5663012 L46.4472457,57.8298909 C46.9312806,57.9092659 47.4237176,57.9521678 47.9214058,57.9521678 C48.4507329,57.9521678 48.9741523,57.9044116 49.4877256,57.8148031 L49.4877256,58.9177877 Z M47.9214058,55.9841925 C44.4574117,55.9841925 41.4909746,53.4266117 40.9233133,50.0630795 C41.566724,50.3872706 42.2924483,50.5709483 43.060839,50.5709483 C45.3511763,50.5709483 47.2686741,48.9477622 47.7235646,46.7921733 L48.03247,46.7921733 C48.4873604,48.9477622 50.4049896,50.5709483 52.6951956,50.5709483 C53.500739,50.5709483 54.2598087,50.3694276 54.9257998,50.0153233 C54.3778308,53.40234 51.4008911,55.9841925 47.9214058,55.9841925 Z M57.0381194,48.6541403 L57.1306729,47.5464326 C57.3429551,47.0074698 57.4608459,46.4215379 57.4608459,45.8081856 C57.4608459,45.4710058 57.4250061,45.1420915 57.3580525,44.8244603 L57.425925,44.0102433 C58.5099165,44.2162247 59.3323952,45.1693808 59.3323952,46.3122497 C59.3322639,47.5878913 58.3074804,48.6269823 57.0381194,48.6541403 Z M58.5482507,42.2931193 C58.2438089,42.1745159 57.9229569,42.0894994 57.5896331,42.0427928 L57.6592123,41.2077153 C58.1940532,41.0733681 58.736771,40.9152741 59.2859216,40.7315964 C59.0838793,41.2620314 58.8377265,41.7831512 58.5482507,42.2931193 Z" id="Shape" fill="#434C54"></path>
                    <g id="Group" transform="translate(42.000000, 44.000000)" fill="#969BA1">
                        <path d="M1.08817568,2.17975993 C1.62783475,2.17975993 2.06511099,1.74579871 2.06511099,1.21023084 L2.06511099,1.03455217 C2.06511099,0.498984303 1.62783475,0.065023084 1.08817568,0.065023084 C0.548516614,0.065023084 0.111240368,0.498984303 0.111240368,1.03455217 L0.111240368,1.21023084 C0.111240368,1.74566944 0.548516614,2.17975993 1.08817568,2.17975993 Z" id="Shape"></path>
                        <path d="M9.59871509,2.17975993 C10.1383742,2.17975993 10.5756504,1.74579871 10.5756504,1.21023084 L10.5756504,1.03455217 C10.5756504,0.498984303 10.1383742,0.065023084 9.59871509,0.065023084 C9.05905603,0.065023084 8.62177978,0.498984303 8.62177978,1.03455217 L8.62177978,1.21023084 C8.62177978,1.74566944 9.05905603,2.17975993 9.59871509,2.17975993 Z" id="Shape"></path>
                        <path d="M6.87775486,6.50243767 C6.53882344,6.75955679 6.03185914,6.90705448 5.48646872,6.90705448 C4.9410783,6.90705448 4.434114,6.75955679 4.09518257,6.50243767 C3.66650336,6.17706371 3.05337876,6.25837488 2.72564952,6.68367498 C2.39792029,7.10910434 2.47972234,7.71758079 2.9082713,8.04282548 C3.59095369,8.56081256 4.50653747,8.84611265 5.48633846,8.84611265 C6.46613945,8.84611265 7.38172322,8.56081256 8.06440562,8.04282548 C8.49295458,7.71758079 8.57475663,7.10910434 8.24702739,6.68367498 C7.91942842,6.25863343 7.30643408,6.17732225 6.87775486,6.50243767 Z" id="Shape"></path>
                    </g>
                    <g id="Group" transform="translate(7.000000, 6.000000)" fill="#0FACF3">
                        <path d="M24.0773394,2.04210865 C32.9751876,2.42766336 41.1058513,7.16108484 45.8269368,14.7038088 C45.8357098,14.7179049 45.8463161,14.7301737 45.8556129,14.7436173 L42.8447506,13.739922 C42.3306754,13.5681583 41.7740443,13.8451208 41.6019876,14.357671 C41.4299308,14.8704822 41.7075262,15.4250598 42.2217323,15.5964319 L47.0084193,17.1921637 C47.1117319,17.2267514 47.2167468,17.2430664 47.3200594,17.2430664 C47.730822,17.2430664 48.113825,16.9841156 48.2511824,16.5744148 L49.8520697,11.8031426 C50.0241264,11.2903314 49.746531,10.7357539 49.2323249,10.5643817 C48.7182497,10.3930096 48.1616186,10.66945 47.9895618,11.1821307 L47.2709565,13.3238257 C42.1768195,5.43457242 33.5709701,0.493885923 24.162713,0.0860123739 C23.6207473,0.0600389864 23.1624531,0.481356047 23.1388837,1.02144589 C23.1153143,1.56179676 23.5355046,2.01861514 24.0773394,2.04210865 Z" id="Shape"></path>
                        <path d="M25.9395853,53.0368743 C17.041737,52.6511891 8.91094239,47.9177676 4.18998788,40.3751742 C4.18134576,40.3614696 4.17165611,40.3489397 4.16249023,40.3357573 L7.17204307,41.3390609 C7.68677298,41.5113467 8.24288032,41.2338622 8.41493707,40.721312 C8.58699382,40.2085007 8.30939845,39.6539232 7.79506137,39.4825511 L3.00850532,37.8868192 C2.76155019,37.8040698 2.49181129,37.8232562 2.25873593,37.939027 C2.02566057,38.0549284 1.84823523,38.2582778 1.76561132,38.5045682 L0.164724046,43.2758403 C-0.00733270794,43.7886516 0.270262664,44.3432291 0.78459975,44.5146012 C0.888043308,44.5491889 0.99292722,44.5655039 1.09623984,44.5655039 C1.50700242,44.5655039 1.89000547,44.3065531 2.02749375,43.8968523 L2.74609912,41.7551572 C7.84036703,49.64428 16.4460854,54.585097 25.8543426,54.9929706 C25.868877,54.9936232 25.8834115,54.9938842 25.897815,54.9938842 C26.4204014,54.9938842 26.8552572,54.5831392 26.8781719,54.0575371 C26.9016104,53.5173167 26.48142,53.0604983 25.9395853,53.0368743 Z" id="Shape"></path>
                    </g>
                </g>
            </g>
        </g>
    </g>
</svg>