<?xml version="1.0" encoding="UTF-8"?>
<svg width="80px" height="80px" viewBox="0 0 80 80" version="1.1" xmlns="http://www.w3.org/2000/svg" xmlns:xlink="http://www.w3.org/1999/xlink">
    <!-- Generator: Sketch 50 (54983) - http://www.bohemiancoding.com/sketch -->
    <title>003-handshake</title>
    <desc>Created with Sketch.</desc>
    <defs></defs>
    <g id="Page-1" stroke="none" stroke-width="1" fill="none" fill-rule="evenodd">
        <g id="2.1.-Home-V2" transform="translate(-499.000000, -953.000000)" fill-rule="nonzero">
            <g id="Icones" transform="translate(126.000000, 811.000000)">
                <g id="003-handshake" transform="translate(380.000000, 160.000000)">
                    <path d="M56,22.097239 L53.7785796,24.2977558 L47.5002833,30.518629 L45.912838,32.0894806 L45.7347696,32.2658735 L43.9824985,34 L30.6586043,20.8000828 L28.2874006,23.1489734 C27.3056454,24.1198346 25.7165288,24.1198346 24.7363164,23.1489734 C23.7545612,22.1781122 23.7545612,20.6022935 24.7363164,19.6314323 L30.961385,13.463286 L30.9630564,13.463286 L33.2062051,11.2395897 L34.4575701,10 L39.5793855,10.232431 L44.2352658,10.4434657 L56,22.097239 Z" id="Shape" fill="#FFFFFF"></path>
                    <g id="Group" transform="translate(24.000000, 11.000000)" fill="#E4EAF8">
                        <polygon id="Shape" points="31.6232609 11.8421586 29.4322101 14.0208747 15.4271377 0.0955765266 20.0194928 0.304382236"></polygon>
                        <path d="M23.2396196,20.1797605 L21.6738768,21.7349596 L19.7699275,23.6263156 L6.62831522,10.5579278 L4.28952899,12.8834132 C3.32119565,13.8446003 1.75380435,13.8446003 0.786992754,12.8834132 C-0.18134058,11.922226 -0.18134058,10.3621094 0.786992754,9.40092228 L9.14108696,1.09269944 L10.8070109,2.92214512 L12.9406159,5.47459318 L16.5103623,13.4888993 L23.2396196,20.1797605 Z" id="Shape"></path>
                    </g>
                    <path d="M46.2680997,36.9697792 C45.3304914,37.8853743 43.8357647,37.9178591 42.8548663,37.0752607 C43.7177126,38.0329983 43.6827723,39.493937 42.7468339,40.4079016 C41.8090971,41.3234968 40.3144989,41.3574867 39.3319306,40.5150137 C40.1964468,41.4727513 40.1615065,42.9320595 39.2238982,43.8476546 C38.2861614,44.7616193 36.7915632,44.7957346 35.8106648,43.9531362 C36.6735111,44.9108738 36.6385708,46.370182 35.7026324,47.2857771 C35.024379,47.9481412 34.0533718,48.1493213 33.1972053,47.8913241 C32.8214683,47.77769 32.4656422,47.5763845 32.1680071,47.2857771 L15.319575,30.8335358 L9,24.6634279 L20.9454818,13 L25.4992857,13.5340554 L27.4744419,13.7662152 L30.6233106,14.1363414 L35.6874745,14.7304748 L37.8952665,23.5953172 L37.7240332,25.176412 L45.3818742,32.6534379 L46.2679712,33.5202431 C47.2439882,34.4730892 47.2439882,36.0168077 46.2680997,36.9697792 Z" id="Shape" fill="#FFFFFF"></path>
                    <g id="Group" transform="translate(9.000000, 13.000000)" fill="#E4EAF8">
                        <path d="M25.0397789,32.6840477 C25.0397789,33.7222204 24.7219519,34.7108346 24.1310622,35.5406831 C23.7569601,35.4249616 23.4026821,35.2199582 23.106342,34.9240126 L6.33121598,18.1695552 C7.20680696,17.4685843 8.28613974,17.0899987 9.42507308,17.0899987 C10.7493309,17.0899987 11.9958266,17.6041036 12.9326808,18.541499 L12.988956,18.5960388 C13.6081111,19.2159025 14.0433487,19.9697528 14.2669147,20.7914267 C15.0912185,21.0162279 15.8460736,21.4493533 16.4652287,22.0693448 L16.5231666,22.1272055 C17.1421938,22.743876 17.5758965,23.4975986 17.7994626,24.3192725 C18.6237664,24.5440736 19.3786215,24.9771991 19.9976487,25.5971905 L20.0522612,25.6517304 C20.6845898,26.2815568 21.1084444,27.042049 21.3285572,27.8471182 C22.152861,28.0702589 22.9093788,28.5050449 23.5301966,29.1250363 L23.5864718,29.1795761 C24.5231981,30.1151833 25.0397789,31.3598921 25.0397789,32.6840477 Z" id="Shape"></path>
                        <polygon id="Shape" points="16.4667635 0.552167894 2.57842742 14.4220174 0.0392647429 11.8861068 11.9327728 0.00830231624"></polygon>
                        <path d="M28.8089384,10.7983757 L22.4988256,10.7983757 L20.6614403,12.6333153 C19.7211328,13.5722434 18.469777,14.0896693 17.1405311,14.0896693 C15.8096226,14.0896693 14.5581389,13.5722434 13.6179593,12.6316548 C11.676209,10.6924892 11.676209,7.53671496 13.6179593,5.59754934 L18.433326,0.788592315 L26.6107523,1.77056473 L28.8089384,10.7983757 Z" id="Shape"></path>
                    </g>
                    <g id="Group" transform="translate(16.000000, 10.000000)" fill="#FFFFFF">
                        <path d="M11.301577,36.0144376 L11.2462565,35.959903 C10.2880859,35.0153435 10.2880859,33.4837568 11.2462565,32.5391972 C12.2044271,31.5946376 13.7580838,31.5946376 14.7162543,32.5391972 L14.7715748,32.5937318 C15.7297454,33.5382914 15.7297454,35.0698781 14.7715748,36.0144376 C13.8134042,36.9589972 12.2597475,36.9589972 11.301577,36.0144376 Z" id="Shape"></path>
                        <path d="M7.80512153,32.5676501 L7.74980107,32.5131154 C6.7916305,31.5685559 6.7916305,30.0369692 7.74980107,29.0924096 C8.70797164,28.1478501 10.2616283,28.1478501 11.2197989,29.0924096 L11.2751194,29.1469443 C12.2332899,30.0915038 12.2332899,31.6230905 11.2751194,32.5676501 C10.3169488,33.5122096 8.76341869,33.5122096 7.80512153,32.5676501 Z" id="Shape"></path>
                        <path d="M4.30879268,29.1208625 L4.25347222,29.0663279 C3.29530165,28.1217683 3.29530165,26.5901816 4.25347222,25.6456221 C5.2116428,24.7010625 6.76529948,24.7010625 7.72347005,25.6456221 L7.77879051,25.7001567 C8.73696108,26.6447162 8.73696108,28.1763029 7.77879051,29.1208625 C6.82049334,30.0655468 5.26696325,30.0655468 4.30879268,29.1208625 Z" id="Shape"></path>
                        <path d="M0.81233724,25.6741997 L0.757016782,25.6196651 C-0.201153791,24.6751055 -0.201153791,23.1435188 0.757016782,22.1989593 C1.71518736,21.2543997 3.26884404,21.2543997 4.22701461,22.1989593 L4.28233507,22.2534939 C5.24050564,23.1980535 5.24050564,24.7296401 4.28233507,25.6741997 C3.3241645,26.6187593 1.77050781,26.6187593 0.81233724,25.6741997 Z" id="Shape"></path>
                        <path d="M17.9530707,0.116931208 L8.3804796,9.55354175 C7.41496672,10.5053393 7.41496672,12.048407 8.3804796,13.0002045 C9.34599248,13.9520021 10.9112956,13.9520021 11.8768084,13.0002045 L14.4147135,10.4983509 L22.5059317,10.4983509 L24.5451931,8.48805759 L17.9530707,0.116931208 Z" id="Shape"></path>
                    </g>
                    <polygon id="Shape" fill="#FAD961" points="64 12.2057243 60.8675992 15.3382271 57.2041951 19 46 7.79575826 52.7956814 1"></polygon>
                    <polygon id="Shape" fill="#FFA816" points="61 15.3056232 57.3039721 19 46 7.69599721 49.6959033 4"></polygon>
                    <path d="M54.3822629,22.5817944 L41.4182056,9.61761065 C40.8605981,9.06000319 40.8605981,8.15594575 41.4182056,7.59833829 L44.5983383,4.41820559 C45.1559457,3.86059814 46.0600032,3.86059814 46.6176107,4.41820559 L59.5817944,17.3823893 C60.1394019,17.9399968 60.1394019,18.8440543 59.5817944,19.4016617 L56.4016617,22.5817944 C55.8439278,23.1394019 54.9398704,23.1394019 54.3822629,22.5817944 Z" id="Shape" fill="#FAD961"></path>
                    <polygon id="Shape" fill="#0FACF3" points="1 14.2058478 4.13250283 17.3382271 7.79575826 21 19 9.79575826 12.2042417 3"></polygon>
                    <polygon id="Shape" fill="#063F59" points="4 17.3055925 7.69590327 21 19 9.69590327 15.3039721 6"></polygon>
                    <path d="M9.61761065,25.5817944 L22.5817944,12.6176107 C23.1394019,12.0600032 23.1394019,11.1559457 22.5817944,10.5983383 L19.4016617,7.41820559 C18.8440543,6.86059814 17.9399968,6.86059814 17.3823893,7.41820559 L4.41820559,20.3823893 C3.86059814,20.9399968 3.86059814,21.8440543 4.41820559,22.4016617 L7.59833829,25.5817944 C8.15594575,26.1394019 9.06000319,26.1394019 9.61761065,25.5817944 Z" id="Shape" fill="#0FACF3"></path>
                    <path d="M64.9999999,12.4239908 C64.9998729,12.1721901 64.8994526,11.9307651 64.7208287,11.7528597 L63.6137926,10.6507573 C63.2414375,10.2802687 62.6386614,10.2807748 62.2671949,10.6515165 C61.8956015,11.0223847 61.8959823,11.6231634 62.2679566,11.9935255 L62.7009956,12.4246235 L59.3924557,15.7222 L49.2256239,5.58893107 L52.5344178,2.2909749 L59.7842348,9.51689506 C59.9702219,9.70213938 60.213973,9.79488807 60.4575971,9.79488807 C60.7012212,9.79488807 60.9449723,9.70226591 61.1309594,9.51689506 C61.5028068,9.1462799 61.5028068,8.54537467 61.1309594,8.17488604 L53.2077801,0.277961373 C52.8358058,-0.0926537909 52.2330297,-0.0926537909 51.8611824,0.277961373 L47.8790262,4.24692205 L47.8004419,4.16859812 C47.3497563,3.71940597 46.750535,3.47216048 46.1133544,3.47216048 C45.4761739,3.47216048 44.8769525,3.7195325 44.4263939,4.16859812 L41.2335088,7.35102966 C40.7828232,7.80009529 40.5346287,8.39733106 40.5346287,9.03252673 C40.5346287,9.29824603 40.580459,9.55624682 40.6639945,9.80058205 L34.0441217,9.49854778 C33.7790424,9.48640061 33.5166292,9.58686781 33.3273412,9.77552852 L30.2030111,12.8895057 L24.2435513,12.1747208 C24.6489144,11.2962021 24.4917458,10.2210512 23.7667133,9.49842124 L20.5737012,6.3159897 C20.1231426,5.86692408 19.5239212,5.61955206 18.8867407,5.61955206 C18.2495601,5.61955206 17.6503388,5.86692408 17.1996532,6.3159897 L17.1210689,6.39431363 L13.1389127,2.42535295 C12.7670654,2.05473779 12.1641623,2.05461126 11.7924419,2.42535295 L10.2283726,3.98423954 C9.85639828,4.3548547 9.85639828,4.9556334 10.2282456,5.32624856 C10.6002199,5.69686372 11.2031229,5.69686372 11.5747164,5.32624856 L12.4656773,4.43836648 L15.7744711,7.73632265 L5.60763938,17.8694651 L2.29871859,14.5715089 L9.07385578,7.81882217 C9.44570311,7.44820701 9.44570311,6.84730178 9.07385578,6.47681315 C8.70188149,6.10619799 8.0991054,6.10619799 7.72725806,6.47681315 L0.278885502,13.9005044 C-0.0929618341,14.2711196 -0.0929618341,14.8720248 0.278885502,15.2425134 L4.26116862,19.2116006 L4.18309211,19.2894184 C3.73253349,19.738484 3.48433904,20.3357198 3.48433904,20.970789 C3.48433904,21.6059846 3.73253349,22.2030939 4.18309211,22.6521595 L7.37610418,25.834591 C7.84126247,26.2982079 8.45229055,26.5300164 9.06319167,26.5300164 C9.29805598,26.5300164 9.53266639,26.4949668 9.75927871,26.4265124 L15.8166198,32.4644142 C15.3413052,33.0624092 15.0827005,33.7968067 15.0827005,34.5711887 C15.0827005,35.4798222 15.437663,36.3340465 16.0825877,36.9768341 L16.1381934,37.0321291 C16.7827373,37.6744106 17.6396747,38.0280703 18.5512021,38.0280703 C18.5647861,38.0280703 18.5781163,38.0271846 18.5917003,38.027058 C18.581544,38.9110176 18.913401,39.7981405 19.5884137,40.4709165 L19.6438924,40.5262114 C19.6440194,40.5263379 19.6441463,40.5264644 19.6442733,40.526591 C20.3096376,41.1897504 21.1835867,41.5212669 22.0576628,41.5212669 C22.0712469,41.5212669 22.0847039,41.5205077 22.098288,41.5202546 C22.0878778,42.4048469 22.4197347,43.2927289 23.0956361,43.9663906 L23.1512418,44.0216856 C23.7957857,44.6639671 24.652723,45.0176268 25.5641235,45.0176268 C25.5777076,45.0176268 25.5911647,45.0167411 25.6047487,45.0166146 C25.5945924,45.9005741 25.9264493,46.787697 26.6014621,47.460473 L26.6569408,47.5157679 C26.6570678,47.5158944 26.6571947,47.516021 26.6573217,47.5161475 C27.3226859,48.1793069 28.1966351,48.5108234 29.0707112,48.5108234 C29.8185953,48.5108234 30.5660986,48.2671209 31.1832205,47.7814872 L31.4048816,48.0025403 C32.0536149,48.6457076 32.9124566,49 33.8233493,49 C34.7342419,49 35.5929566,48.6458341 36.2430865,48.001275 C36.8899155,47.3574751 37.2460205,46.5013528 37.2460205,45.5904417 C37.2460205,45.5695638 37.244878,45.5488124 37.2444971,45.5279344 C37.2644288,45.528314 37.2843606,45.5293263 37.3042923,45.5293263 C38.1803996,45.5293263 39.0568879,45.1969241 39.7239025,44.5321197 C40.4062786,43.8520048 40.7387703,42.9536205 40.7229011,42.0602975 C40.7437215,42.0606771 40.764288,42.0618159 40.7851084,42.0618159 C41.6990479,42.0618159 42.5582704,41.7070174 43.2045916,41.0629644 C43.8869677,40.3828495 44.2194594,39.4844652 44.2037171,38.5911422 C44.2246645,38.5915218 44.2456118,38.5926606 44.2666861,38.5926606 C45.1799909,38.5926606 46.0390865,38.237862 46.6856616,37.593556 C48.0193101,36.2642003 48.0193101,34.1011186 46.6856616,32.7718894 L46.4816471,32.5685509 L48.2681393,30.7879785 C48.6399866,30.4173633 48.6399866,29.8165846 48.2681393,29.4459694 C47.8962919,29.0753543 47.2935159,29.0752277 46.9215416,29.4459694 L45.1350493,31.2264153 L35.7998911,21.9220641 L38.5678623,21.9220641 C38.8203732,21.9220641 39.0624738,21.822103 39.2412246,21.6440711 L41.2864484,19.6056244 C41.6582958,19.2350092 41.6582958,18.6342305 41.2864484,18.2636154 C40.9144742,17.8930002 40.3116981,17.8928737 39.9398507,18.2636154 L38.1735441,20.024069 L33.5016486,20.024069 C33.5013947,20.024069 33.5012678,20.024069 33.5010139,20.024069 L30.4520942,20.024069 C30.1995833,20.024069 29.9574827,20.1240301 29.7787319,20.302062 L27.2329297,22.8395549 C26.9448718,23.1269113 26.5617256,23.2852041 26.1538234,23.2852041 C25.7457942,23.2852041 25.3621402,23.1267848 25.0743362,22.8399345 C24.7853896,22.5511862 24.6261897,22.1685504 24.6261897,21.7626325 C24.6261897,21.3567146 24.7853896,20.9742053 25.0734475,20.6862162 L31.2186406,14.5613863 C31.2277812,14.5524024 31.2369219,14.5437982 31.2456817,14.5344347 L34.3764865,11.4138778 L42.2978884,11.7752561 L53.474002,22.9143359 L49.5909966,26.7842212 C49.2191493,27.1548364 49.2191493,27.7556151 49.5909966,28.1262302 C49.7769838,28.3116011 50.0206079,28.4042232 50.264359,28.4042232 C50.5079831,28.4042232 50.7517342,28.3116011 50.9375944,28.1262302 L54.9221626,24.1551185 C55.2428476,24.3050601 55.5893042,24.3827514 55.9367765,24.3827514 C56.5478045,24.3827514 57.1587057,24.1509429 57.623864,23.6874525 L60.816876,20.505021 C61.2674347,20.0559553 61.5156291,19.4587196 61.5156291,18.8236504 C61.5156291,18.1884548 61.2674347,17.5913455 60.816876,17.1422799 L60.7387995,17.0644621 L64.7209557,13.0953749 C64.8997065,12.9172164 65.0001268,12.6757915 64.9999999,12.4239908 Z M5.52930896,21.3100239 C5.4066717,21.1877931 5.38839037,21.0450638 5.38839037,20.970789 C5.38839037,20.8966406 5.40679865,20.7537849 5.52943591,20.6314274 L18.54587,7.65799873 C18.6686343,7.53564131 18.811965,7.51742056 18.8864868,7.51742056 C18.9610086,7.51742056 19.1042123,7.53564131 19.2268496,7.65787219 L22.4198617,10.8403037 C22.6076262,11.027446 22.6076262,11.3318844 22.4198617,11.5190268 L9.40330058,24.4924555 C9.21553609,24.6793447 8.91021248,24.6795978 8.72257494,24.4924555 L5.52930896,21.3100239 Z M17.4841564,35.6896139 C17.4840294,35.6894874 17.4839025,35.6893608 17.4837755,35.6892343 L17.4285507,35.634319 C16.8402473,35.0480916 16.8402473,34.0942858 17.4285507,33.5079319 C17.7224485,33.2148814 18.1086416,33.0683562 18.4949616,33.0683562 C18.8814086,33.0683562 19.2679826,33.215008 19.5621343,33.5083115 L19.6173591,33.5632268 C20.1359649,34.0801141 20.1967757,34.8823333 19.8008072,35.4667893 C19.7278088,35.5282843 19.6565878,35.5924366 19.5882867,35.6606378 C19.5199856,35.7287126 19.456001,35.7994445 19.3948093,35.8716949 C18.8082833,36.266984 18.0028891,36.2066277 17.4841564,35.6896139 Z M20.9904902,39.1843289 L20.9350114,39.129034 C20.4164056,38.6121467 20.3555948,37.8099274 20.7515633,37.2254715 C20.8245617,37.1639764 20.8957827,37.0998242 20.9640838,37.0316229 C21.0323849,36.9635482 21.0963695,36.8926897 21.1576882,36.8204393 C21.7439603,36.4254033 22.5493544,36.4855065 23.0679602,37.0023938 L23.1236929,37.0580683 C23.6426795,37.5752087 23.7031095,38.3780606 23.3065062,38.9626431 C23.2340156,39.0237585 23.1630485,39.0874046 23.0947474,39.1554794 C23.0264464,39.2235541 22.9624617,39.2944126 22.9011431,39.3666629 C22.314744,39.7618255 21.5092229,39.7014693 20.9904902,39.1843289 Z M24.4969509,42.6791704 C24.4968239,42.6790439 24.496697,42.6789173 24.49657,42.6787908 L24.4413452,42.6238755 C23.9223585,42.1067351 23.8619285,41.3038832 24.2585319,40.7193007 C24.3310224,40.6581853 24.4019895,40.5945392 24.4702906,40.5264644 C24.5385917,40.4583897 24.6025763,40.3875312 24.663895,40.3152809 C24.9178023,40.1442082 25.2125888,40.0579127 25.5077561,40.0579127 C25.8942031,40.0579127 26.2807771,40.2045645 26.5749287,40.497868 L26.6301536,40.5527833 C27.1487594,41.0696706 27.2095702,41.8718899 26.8136017,42.4563458 C26.7406033,42.5178408 26.6693823,42.5819931 26.6010812,42.6501944 C26.5327801,42.7182691 26.4687955,42.7891276 26.4074768,42.8613779 C25.8213317,43.2565405 25.0159375,43.1963108 24.4969509,42.6791704 Z M30.1366143,46.1740119 C29.5484379,46.7603659 28.591461,46.7602393 28.0032846,46.1740119 L27.9478059,46.118717 C27.4292001,45.6018297 27.3683893,44.7996105 27.7643578,44.2151545 C27.8373562,44.1536595 27.9085772,44.0895073 27.9768783,44.021306 C28.0451793,43.9532312 28.1096718,43.8821197 28.1713713,43.8094897 C28.7576434,43.4150863 29.5625298,43.4754426 30.0807547,43.9920768 L30.1364874,44.0477514 C30.7249177,44.6338522 30.7249177,45.587658 30.1366143,46.1740119 Z M23.7262151,19.3447133 C23.0786243,19.9916766 22.7220114,20.8503295 22.7220114,21.7623794 C22.7220114,22.6744293 23.0786243,23.5329557 23.7269768,24.1808047 C24.3753292,24.8270087 25.2372178,25.1828195 26.1539503,25.1828195 C27.0709368,25.1828195 27.9326984,24.8268822 28.5800352,24.1808047 L30.8465393,21.9216845 L33.105807,21.9216845 L45.3381752,34.1136454 C45.9295255,34.7029095 45.9293985,35.6619032 45.3381752,36.2512939 C45.0513869,36.5371319 44.6706528,36.694539 44.2659244,36.694539 C43.9204835,36.694539 43.5931969,36.579394 43.3264672,36.3688431 C43.2869846,36.3251892 35.8634949,28.9465437 35.8634949,28.9465437 C35.4916476,28.5759285 34.8888715,28.575802 34.5168972,28.9465437 C34.1450499,29.3171588 34.1450499,29.9180641 34.5168972,30.2885527 L41.8458064,37.5933029 C41.887955,37.6353119 41.9309923,37.675929 41.9749183,37.7154073 C42.4450278,38.3083409 42.4064338,39.1735736 41.8573592,39.7207023 C41.5708247,40.0062873 41.1898367,40.1635678 40.7846005,40.1635678 C40.4396674,40.1635678 40.1127617,40.0485493 39.8462859,39.838378 C39.8066763,39.7945976 32.382425,32.4154459 32.382425,32.4154459 C32.0104507,32.0448308 31.4076746,32.0448308 31.0358272,32.4154459 C30.6639799,32.7860611 30.6639799,33.3869663 31.0358272,33.757455 L38.3653712,41.0627113 C38.4075198,41.1047203 38.450684,41.1453374 38.49461,41.1849422 C38.9643386,41.7778758 38.9257447,42.6428554 38.3769239,43.1898576 C37.8278493,43.7368598 36.9605017,43.7753258 36.3657237,43.3077864 C36.3259872,43.2640059 28.9017358,35.8847278 28.9017358,35.8847278 C28.5297616,35.5141126 27.9269855,35.5141126 27.5551381,35.8847278 C27.1832908,36.255343 27.1832908,36.8562482 27.5551381,37.2267368 L34.884682,44.5319932 C34.9273385,44.5745082 34.9708836,44.6155049 35.0151904,44.6553628 C35.2260605,44.9210821 35.3414614,45.2467781 35.3414614,45.5903152 C35.3414614,45.9937024 35.183658,46.3730483 34.898393,46.6569884 C34.6090656,46.9439652 34.2271889,47.102005 33.8230954,47.102005 C33.4190018,47.102005 33.0372521,46.9439652 32.749575,46.6588864 L32.2992703,46.2099473 C32.7045065,45.0211697 32.4329525,43.6519561 31.4839737,42.7059954 L31.4282411,42.6503209 C30.7835703,42.0077863 29.926506,41.654 29.0148516,41.654 C29.0017753,41.654 28.9888261,41.6547592 28.9758768,41.6550123 C28.9760037,41.6419794 28.9768924,41.629073 28.9768924,41.6160401 C28.9768924,40.7074066 28.6219299,39.8531823 27.9770052,39.2103947 L27.9217804,39.1554794 C27.2461329,38.4820707 26.3554258,38.1513135 25.4678926,38.1618157 C25.4784298,37.27735 25.1466998,36.3895945 24.4711793,35.7163124 L24.4154466,35.6606378 C23.7707758,35.0181033 22.9137115,34.664317 22.0020571,34.664317 C21.9884731,34.664317 21.975016,34.6652027 21.9615589,34.6653292 C21.9715882,33.7812432 21.6396043,32.8939937 20.9642107,32.2207116 L20.9089859,32.1657963 C20.2643151,31.5232617 19.4072508,31.1694755 18.4957233,31.1694755 C18.1146084,31.1694755 17.7433958,31.2321093 17.3928767,31.3510503 L11.3045589,25.2821479 L22.7208688,13.9036677 L28.4912946,14.5958032 L23.7262151,19.3447133 Z M59.4704053,19.1627589 L56.2775202,22.3451904 C56.0897557,22.5322062 55.7841781,22.5323327 55.5965406,22.3451904 L55.5966676,22.3451904 L55.4990402,22.2478865 C55.4973898,22.2462416 55.4959933,22.2443436 55.4943429,22.2426987 C55.4926925,22.2410538 55.4907882,22.2396619 55.4891378,22.238017 L42.5798526,9.37163517 C42.4572153,9.24940429 42.438934,9.10654853 42.438934,9.0324002 C42.438934,8.95825186 42.4573423,8.8153961 42.5799795,8.69303868 L45.7729916,5.51048061 C45.8956289,5.38824973 46.0389596,5.37002898 46.1133544,5.37002898 C46.1878762,5.37002898 46.3312069,5.38837627 46.4538442,5.51060715 L59.4705322,18.4841624 C59.5931695,18.6063933 59.6114508,18.7491225 59.6114508,18.8233974 C59.6114508,18.8976722 59.5930425,19.040528 59.4704053,19.1627589 Z" id="Shape" fill="#434C54"></path>
                    <path d="M55.9406972,17.2219977 C55.4965896,16.9260008 54.7769231,16.9260008 54.332967,17.2219977 C53.889011,17.5179945 53.889011,17.9979157 54.332967,18.2938115 L55.0591512,18.7779771 C55.281205,18.925925 55.5722243,19 55.8630921,19 C56.1539598,19 56.4449792,18.926026 56.667033,18.7779771 C57.110989,18.4819802 57.110989,18.002059 56.667033,17.7061632 L55.9406972,17.2219977 Z" id="Shape" fill="#FFA816"></path>
                    <path d="M9.94079529,20.7779771 L10.6670161,20.2938115 C11.1109946,19.9978146 11.1109946,19.5178935 10.6670161,19.2219977 C10.2228861,18.9260008 9.50318318,18.9260008 9.05920471,19.2219977 L8.33298386,19.7061632 C7.88900538,20.0021601 7.88900538,20.4820813 8.33298386,20.7779771 C8.55504888,20.925925 8.84608291,21 9.13696536,21 C9.42784781,21 9.71873026,20.926026 9.94079529,20.7779771 Z" id="Shape" fill="#063F59"></path>
                </g>
            </g>
        </g>
    </g>
</svg>