<?xml version="1.0" encoding="UTF-8"?>
<svg width="29px" height="72px" viewBox="0 0 29 72" version="1.1" xmlns="http://www.w3.org/2000/svg" xmlns:xlink="http://www.w3.org/1999/xlink">
    <!-- Generator: Sketch 50 (54983) - http://www.bohemiancoding.com/sketch -->
    <title>016-graphic-design</title>
    <desc>Created with Sketch.</desc>
    <defs></defs>
    <g id="Page-1" stroke="none" stroke-width="1" fill="none" fill-rule="evenodd">
        <g id="2.1.-Home-V1" transform="translate(-238.000000, -651.000000)" fill-rule="nonzero">
            <g id="Icones" transform="translate(134.000000, 646.000000)">
                <g id="016-graphic-design" transform="translate(104.000000, 5.000000)">
                    <polygon id="Shape" fill="#FAD961" points="16.987781 2 11.0120779 2 10 12 18 12"></polygon>
                    <path d="M4.76703359,52.3049988 L10.9586661,28.0574019 C11.508547,25.9041049 13.7653651,24.5877765 16,25.1169694 L8.74063192,53.5465777 L7.33353621,59.0575174 L5.04998059,68 L2,63.1421279 L3.21582002,58.3805242" id="Shape" fill="#0FACF3"></path>
                    <circle id="Oval" fill="#FFFFFF" cx="5.5" cy="54.5" r="3.5"></circle>
                    <path d="M26.2329664,52.3049988 L20.0413339,28.0574019 C19.491453,25.9041049 17.2346349,24.5877765 15,25.1169694 L22.2593681,53.5465777 L23.6664638,59.0575174 L25.9500194,68 L29,63.1421279 L27.78418,58.3805242" id="Shape" fill="#0FACF3"></path>
                    <circle id="Oval" fill="#FFFFFF" cx="23.5" cy="54.5" r="3.5"></circle>
                    <path d="M28.9650114,62.2186493 L27.9622099,58.1088676 C28.0674964,57.9703514 28.167902,57.8264915 28.2595222,57.6737722 C28.9178765,56.5763304 29.1132492,55.286091 28.8092432,54.0407111 C28.5052372,52.7953312 27.7386678,51.7437334 26.6505215,51.0798402 C26.4994947,50.9877304 26.3441448,50.9053238 26.1862848,50.8313548 L22.0801118,34.0036797 C24.3390996,31.8852964 25.6224792,28.9394724 25.6224792,25.8012727 C25.6224792,23.783296 25.0848905,21.8042727 24.0677254,20.0780941 C23.7262068,19.4985762 22.9834838,19.3080285 22.4085219,19.6522799 C21.8336996,19.9966719 21.6447417,20.7457842 21.9862604,21.3254427 C22.780999,22.6743229 23.2011688,24.2219071 23.2011688,25.8012727 C23.2011688,27.7705929 22.5545285,29.6433033 21.3868944,31.1631842 L20.4609311,27.3681225 C19.8039713,24.6765495 17.1691595,22.9897461 14.5000424,23.491498 C11.8306465,22.9891836 9.19569521,24.6764089 8.53901432,27.3681225 L7.61263268,31.1643092 C6.44471964,29.6434439 5.79793987,27.7703116 5.79793987,25.8012727 C5.79793987,20.9627694 9.70148871,17.026379 14.4996241,17.026379 C16.0369463,17.026379 17.5472147,17.4355994 18.8674096,18.209743 C19.4453,18.5487912 20.186489,18.3510717 20.5222901,17.7681788 C20.8585096,17.1852859 20.6624397,16.4381423 20.0844099,16.0993754 C18.7439943,15.3134192 17.2511575,14.822636 15.7104884,14.6530416 L15.7104884,12.8588002 L18.4544914,12.8588002 C18.7958706,12.8588002 19.1212128,12.7133934 19.3507513,12.4585799 C19.5801504,12.2036258 19.69227,11.8630307 19.6593593,11.5203263 L18.658789,1.10306681 C18.5988245,0.47742374 18.0772729,0 17.4539211,0 L11.5461638,0 C10.922812,0 10.4012604,0.47742374 10.3412959,1.10306681 L9.34058615,11.5203263 C9.30767541,11.8628901 9.41965561,12.2036258 9.6491941,12.4585799 C9.87873259,12.713534 10.2040748,12.8588002 10.545454,12.8588002 L13.289457,12.8588002 L13.289457,14.6526197 C7.72363671,15.2629346 3.37690845,20.0291564 3.37690845,25.8014133 C3.37690845,28.9389099 4.66042744,31.8851558 6.91955473,34.0055078 L5.31501654,40.5815804 C5.1552042,41.2361923 5.55208546,41.8975543 6.20137538,42.0587112 C6.85108365,42.2195868 7.50650947,41.8197884 7.66618236,41.1648952 L10.8903196,27.9518592 C11.1483063,26.8951988 11.9793026,26.1297739 12.9680194,25.9094137 L6.87967137,50.8607455 C6.58612428,50.718995 6.27612181,50.6060727 5.95273192,50.5256349 C5.77144393,50.4807753 5.58917977,50.4478689 5.40677616,50.4243845 L6.54456749,45.7615225 C6.70437983,45.1069106 6.30763803,44.4455486 5.65820866,44.2843917 C5.00891874,44.1237974 4.35321401,44.5234552 4.19340168,45.1782077 L2.81380005,50.8313548 C2.65594004,50.9054645 2.50086908,50.9877304 2.34970279,51.0798402 C1.26141702,51.7437334 0.494708262,52.7954719 0.190841696,54.0407111 C-0.113164323,55.286091 0.0822083522,56.5763304 0.740562671,57.6737722 C0.832182834,57.8264915 0.932588491,57.9703514 1.03787498,58.1090082 L0.035073474,62.2187899 C-0.0416252922,62.5332286 0.0085775366,62.8655268 0.174804681,63.1422779 L2.81031374,67.5348576 L2.0897637,70.487291 C1.92995136,71.1419029 2.32683261,71.8032649 2.97612253,71.9644217 C3.07332078,71.9884687 3.17065849,72 3.26632277,72 C3.81046565,72 4.30510297,71.6272017 4.44092951,71.0706057 L7.32075901,59.2695909 C9.52020072,57.896523 10.2291762,54.9904961 8.91274649,52.7452685 L10.0410551,48.1217817 L13.3004737,48.1217817 L13.3004737,49.9527264 C13.3004737,50.6268853 13.8425248,51.1734968 14.5110592,51.1734968 C15.1795935,51.1734968 15.7216446,50.6268853 15.7216446,49.9527264 L15.7216446,48.1217817 L18.9591692,48.1217817 L20.0874778,52.7452685 C18.7711875,54.9904961 19.4800236,57.8963824 21.6794653,59.2695909 L24.5592948,71.0706057 C24.6952608,71.6273423 25.1896192,72 25.7339015,72 C25.8295658,72 25.9269035,71.9884687 26.0241018,71.9644217 C26.6732523,71.8032649 27.0699941,71.1419029 26.9104606,70.487291 L26.1899106,67.5348576 L28.8254196,63.1422779 C28.9913679,62.8653862 29.0415707,62.533088 28.9650114,62.2186493 Z M12.6451874,2.44154079 L16.355037,2.44154079 L17.1210485,10.4172594 L11.878897,10.4172594 L12.6451874,2.44154079 Z M26.1878188,56.4099704 C25.5198423,57.5233028 24.0779055,57.8811948 22.9738616,57.2073172 C21.8696783,56.5335802 21.5149116,55.0797933 22.1828881,53.9663202 C22.5065569,53.4268806 23.0190441,53.0467697 23.62608,52.8963004 C24.2329764,52.7456904 24.8619063,52.8424408 25.3969848,53.1688327 C25.9317844,53.4952246 26.3085845,54.0120235 26.4580774,54.6241665 C26.6075702,55.2364501 26.511627,55.8705307 26.1878188,56.4099704 Z M18.1100442,27.9515779 L23.5935876,50.4243845 C23.411184,50.4478689 23.2289198,50.4804941 23.0476318,50.5256349 C22.7241025,50.6059321 22.4142395,50.718995 22.1206924,50.8607455 L16.0323443,25.9094137 C17.0209217,26.1297739 17.8521969,26.8950582 18.1100442,27.9515779 Z M14.499903,29.8483353 L15.6353236,34.5009316 C14.8836757,34.5990883 14.1164091,34.5990883 13.3647612,34.5009316 L14.499903,29.8483353 Z M2.54186806,54.6241665 C2.69122148,54.0120235 3.0680216,53.4952246 3.60296063,53.1688327 C3.98087637,52.9382068 4.39811766,52.8285189 4.81061757,52.8285189 C5.603125,52.8285189 6.37764309,53.2339423 6.81691784,53.9664608 C7.48503382,55.0799339 7.13026716,56.5338615 6.02622328,57.2074578 C4.92203996,57.8811948 3.4802426,57.5234435 2.81226607,56.4098297 C2.48845783,55.8705307 2.39251464,55.2364501 2.54186806,54.6241665 Z M3.14764886,59.6817644 C3.62945657,59.8628901 4.13803911,59.9649842 4.65345482,59.9834062 L3.6287593,64.1823445 L2.50602882,62.3111809 L3.14764886,59.6817644 Z M15.7215051,45.6803816 L15.7215051,43.8494369 C15.7215051,43.175278 15.179454,42.6286665 14.5109197,42.6286665 C13.8423854,42.6286665 13.3003343,43.175278 13.3003343,43.8494369 L13.3003343,45.6803816 L10.6367953,45.6803816 L12.7833846,36.8832691 C13.3491426,36.9718632 13.9228494,37.0178477 14.4996241,37.0178477 C15.0766777,37.0178477 15.6506634,36.9717225 16.2165608,36.8832691 L18.3631501,45.6806628 L15.7215051,45.6806628 L15.7215051,45.6803816 Z M25.3713256,64.1823445 L24.34663,59.9834062 C24.8619063,59.9649842 25.3706283,59.8628901 25.852436,59.6816238 L26.494056,62.3110403 L25.3713256,64.1823445 Z" id="Shape" fill="#434C54"></path>
                </g>
            </g>
        </g>
    </g>
</svg>