<?xml version="1.0" encoding="UTF-8"?>
<svg width="80px" height="80px" viewBox="0 0 80 80" version="1.1" xmlns="http://www.w3.org/2000/svg" xmlns:xlink="http://www.w3.org/1999/xlink">
    <!-- Generator: Sketch 50 (54983) - http://www.bohemiancoding.com/sketch -->
    <title>010-savings</title>
    <desc>Created with Sketch.</desc>
    <defs></defs>
    <g id="Page-1" stroke="none" stroke-width="1" fill="none" fill-rule="evenodd">
        <g id="2.1.-Home-V2" transform="translate(-740.000000, -952.000000)" fill-rule="nonzero">
            <g id="Icones" transform="translate(126.000000, 811.000000)">
                <g id="010-savings" transform="translate(625.000000, 145.000000)">
                    <path d="M57,33.9083722 L57,46.3459437 L51.253553,46.3459437 C50.48307,48.814588 49.3048225,51.10025 47.7970221,53.1259828 L47.7970221,62 L38.0215652,62 L38.0215652,55.0950308 L37.8249225,55.1691187 C35.2082998,56.1522754 32.4586432,56.6430457 29.7105953,56.6430457 C26.8929985,56.6430457 24.0755255,56.127538 21.4024717,55.0950308 L21.4024717,62 L11.6270148,62 L11.6270148,53.1259828 C10.6743681,51.8465988 9.8532703,50.4627956 9.18389307,48.9960785 L8.06356175,45.9930316 C7.41163362,44.4102104 7.1180927,42.7373897 7.0284959,41.1617783 C6.82616057,37.5604342 7.70789708,33.9824601 9.46443997,30.8370799 C10.02541,29.8308018 10.6816695,28.7489442 11.3495617,27.845718 C14.2769269,23.8813928 18.2004997,21.0482757 22.5315894,19.4683136 C29.1699207,17.0433016 36.769685,17.5631601 43.2186749,21.4679415 C43.5107308,21.6450813 43.7160362,21.778713 43.8157807,21.8585191 C44.9173016,20.2408914 46.772104,19.1792961 48.8711938,19.1792961 L50.0769143,19.1792961 L50.0769143,29.7784679 C50.7028544,31.0897992 51.2088783,32.472235 51.576052,33.9083722 L57,33.9083722 Z" id="Shape" fill="#FFFFFF"></path>
                    <path d="M38,55.1813495 L37.803494,55.2545112 C35.1886903,56.2253775 32.4409451,56.7100127 29.6948076,56.7100127 C26.8791696,56.7100127 24.0636552,56.2009493 21.3924595,55.1813495 L21.3924595,62 L11.6237982,62 L11.6237982,53.2369164 C10.6718138,51.9735259 9.8512868,50.6070216 9.18237489,49.1586399 L8.06282239,46.1931339 C7.41134746,44.6300994 7.11801061,42.9781906 7.02847609,41.4222759 C6.82628142,37.865952 7.70740498,34.3327059 9.46272677,31.2266459 C10.0233068,30.2329473 10.6791101,29.1646139 11.346538,28.2726789 C14.2718682,24.3579115 18.1927135,21.5602111 22.5207924,20 C22.5207924,20 11.0032399,31.5822661 13.1408147,40.9648922 C16.3911404,55.2329064 27.610162,55.1813495 38,55.1813495 Z" id="Shape" fill="#0FACF3"></path>
                    <circle id="Oval" fill="#FFFFFF" cx="43" cy="34" r="2"></circle>
                    <path d="M35,7.9999386 C35,11.8671818 31.8657358,15 28,15 C26.607171,15 25.3090147,14.5940463 24.2188679,13.8926526 C22.282439,12.6475314 21,10.4743406 21,8.0000614 C21,4.1342917 24.1342642,1 28,1 C29.5089901,1 30.9061168,1.47766483 32.0493097,2.28809873 C33.8353185,3.55753291 35,5.64317227 35,7.9999386 Z" id="Shape" fill="#FAD961"></path>
                    <path d="M36,7.39196121 C36,11.0426282 32.8021071,14 28.8578929,14 C27.4367882,14 26.1122779,13.6167808 25,12.9546671 L32.9894077,2 C34.8116743,3.1983424 36,5.16718024 36,7.39196121 Z" id="Shape" fill="#FFFFFF"></path>
                    <path d="M25.3751625,21.3898592 C24.4850626,21.5553876 23.598046,21.7746009 22.7387796,22.0414193 C22.1726775,22.2172718 21.866933,22.7864692 22.0558804,23.3129941 C22.2069643,23.7339845 22.6283958,24 23.0806608,24 C23.1940046,24 23.309445,23.9832522 23.4227887,23.9480358 C24.1970782,23.7076009 24.9964045,23.5100681 25.7986907,23.3609434 C28.7212081,22.817556 31.7786526,22.9059984 34.6403664,23.6167496 C35.2170752,23.760024 35.8090773,23.4412413 35.9631212,22.9050807 C36.1171651,22.3688054 35.7745439,21.8180765 35.1979584,21.674802 C32.0180435,20.8850148 28.6214311,20.7864778 25.3751625,21.3898592 Z" id="Shape" fill="#0FACF3"></path>
                    <g id="Group" transform="translate(0.000000, 17.000000)" fill="#434C54">
                        <path d="M8.23379741,29.1202547 C7.69868534,27.7935198 7.38027155,26.2672078 7.28740086,24.5832751 C7.10079957,21.2016762 7.88970905,17.7913503 9.56862931,14.7207089 C10.2088966,13.5495787 10.8134159,12.5692061 11.3651121,11.8065541 C14.3063858,7.74092448 18.3495776,4.80598039 23.0579741,3.31910501 C27.7078966,1.850625 32.5821336,1.91853669 37.1534353,3.51565832 C37.7166789,3.71246362 38.3277091,3.40364813 38.519347,2.82671377 C38.7108621,2.24965342 38.4102608,1.62244677 37.8476315,1.42576746 C32.8442845,-0.322171032 27.5110991,-0.397264476 22.4245862,1.20905484 C17.274931,2.83528148 12.8528858,6.04477022 9.6365625,10.4909069 C9.03056897,11.3285263 8.37617457,12.3882763 7.69119181,13.6406736 C6.56507328,15.6999475 5.79987284,17.8992027 5.40971767,20.1486041 C4.69684914,20.210846 3.68546767,20.1646055 3.04065517,19.6482751 C2.51451078,19.2269455 2.25887069,18.5182196 2.25887069,17.4815269 C2.25887069,16.8718336 1.77695043,16.3776785 1.18262716,16.3776785 C0.588303879,16.3776785 0.106383621,16.8719596 0.106383621,17.4815269 C0.106383621,19.2186297 0.648006466,20.533017 1.7160194,21.3882759 C2.52519828,22.0361458 3.62748491,22.3782242 4.90629957,22.3782242 C4.91809267,22.3782242 4.93013147,22.3782242 4.94204741,22.3782242 C5.01231466,22.3779722 5.08098491,22.3762083 5.14842672,22.3739403 C5.10064009,23.1505779 5.09535776,23.9297354 5.1382306,24.7078849 C5.24485991,26.6396511 5.61707974,28.4081269 6.24481681,29.9642999 C6.41643103,30.3896615 6.81727371,30.6463147 7.23973707,30.6463147 C7.37695474,30.6463147 7.51626078,30.6192256 7.65077586,30.5621496 C8.20013793,30.3291835 8.46118319,29.6835815 8.23379741,29.1202547 Z" id="Shape"></path>
                        <path d="M55.8171272,16.1898189 L51.2515991,16.1898189 C50.9242177,15.0548495 50.5120733,13.9389055 50.0217996,12.8600042 L50.0217996,2.36544347 C50.0217996,1.75575023 49.5398793,1.26159505 48.945556,1.26159505 L47.748556,1.26159505 C45.7374634,1.26159505 43.8384052,2.12693359 42.4936228,3.61784084 C42.0583836,3.35425781 41.6127026,3.10264438 41.1660388,2.86804036 C40.6369461,2.59034582 39.9883254,2.80504251 39.7174526,3.34770604 C39.4467026,3.89049556 39.6560302,4.55562691 40.1851228,4.83344746 C40.6559871,5.08052505 41.1255,5.34864392 41.5808858,5.63011834 C41.9531056,5.8601865 42.0476961,5.93464997 42.0570323,5.94233571 C42.2906832,6.13397518 42.5915302,6.21725835 42.8878319,6.17215188 C43.1838879,6.12691942 43.4481272,5.95745519 43.6172845,5.70407782 C44.5518879,4.30476945 46.0962931,3.46941789 47.7488017,3.46941789 L47.8694353,3.46941789 L47.8694353,13.1078378 C47.8694353,13.2730182 47.9054289,13.4359306 47.9750819,13.5848575 C48.5732134,14.8652259 49.0493599,16.2053163 49.3900086,17.5679599 C49.5121164,18.0561933 49.9410905,18.3976417 50.4325927,18.3976417 L54.7410065,18.3976417 L54.7410065,28.7969497 L50.1128276,28.7969497 C49.6424547,28.7969497 49.2265022,29.110175 49.0859677,29.5705633 C48.3664655,31.9240372 47.2677414,34.1248043 45.8205065,36.1115047 C45.681569,36.3022622 45.6063879,36.5340943 45.6063879,36.7722262 L45.6063879,44.6625816 L38.0543793,44.6625816 L38.0543793,38.7681242 C38.0543793,38.4061386 37.8812909,38.0672101 37.5913772,37.8610811 C37.3014634,37.6547001 36.9312091,37.6074517 36.6008793,37.7343294 L36.4054332,37.8094229 C31.3870991,39.7347633 25.8691552,39.7094382 20.867528,37.7378573 C20.5365841,37.6073258 20.1641185,37.6523062 19.8718707,37.8584352 C19.5795,38.0643122 19.4050603,38.4046266 19.4050603,38.7683762 L19.4050603,44.6628336 L11.8545259,44.6628336 L11.8545259,36.7723522 C11.8545259,36.5339683 11.7793448,36.3017582 11.6400388,36.1108747 C10.7352866,34.8706989 9.9582931,33.5302305 9.33080172,32.1266383 C9.08314655,31.5723832 8.44398491,31.3293375 7.90395905,31.5833448 C7.3636875,31.8373522 7.12647414,32.4926559 7.37425216,33.046785 C8.01501078,34.4802382 8.79740948,35.8538434 9.70216164,37.1347158 L9.70216164,45.766556 C9.70216164,46.3762492 10.1840819,46.8704044 10.7784052,46.8704044 L20.4815496,46.8704044 C21.0759957,46.8704044 21.5577931,46.3761232 21.5577931,45.766556 L21.5577931,40.3205174 C26.2283534,41.8169684 31.2278922,41.8177244 35.9018922,40.3196354 L35.9018922,45.76643 C35.9018922,46.3761232 36.3838125,46.8702784 36.9781358,46.8702784 L46.6827543,46.8702784 C47.2772004,46.8702784 47.7589978,46.3759972 47.7589978,45.76643 L47.7589978,37.1343379 C49.0905129,35.2474261 50.1409591,33.1902941 50.8892069,31.0046465 L55.81725,31.0046465 C56.4116961,31.0046465 56.8934935,30.5103653 56.8934935,29.9007981 L56.8934935,17.2936673 C56.8933707,16.683974 56.4114504,16.1898189 55.8171272,16.1898189 Z" id="Shape"></path>
                    </g>
                    <path d="M47,34.5 C47,32.5700666 45.4299334,31 43.5,31 C41.5702036,31 40,32.5700666 40,34.5 C40,36.4299334 41.5700666,38 43.5,38 C45.4299334,38 47,36.4297964 47,34.5 Z M42.4013508,34.5 C42.4013508,33.8940094 42.8942835,33.4013508 43.5,33.4013508 C44.1057165,33.4013508 44.5986492,33.8942835 44.5986492,34.5 C44.5986492,35.1057165 44.1057165,35.5986492 43.5,35.5986492 C42.8942835,35.5986492 42.4013508,35.1057165 42.4013508,34.5 Z" id="Shape" fill="#0FACF3"></path>
                    <path d="M29.4999354,17 C34.1869388,17 38,13.1869678 38,8.5 C38,3.81303217 34.1869388,0 29.4999354,0 C28.0851104,0 26.683856,0.355157523 25.4475159,1.02669991 C24.8979739,1.3253786 24.6945452,2.01268854 24.9930969,2.56209707 C25.2915194,3.11163484 25.9789638,3.31493279 26.5285057,3.01651259 C27.4341126,2.52461683 28.4614665,2.2647108 29.4999354,2.2647108 C32.9381914,2.2647108 35.735272,5.0618994 35.735272,8.5 C35.735272,11.9381006 32.9380621,14.7352892 29.4999354,14.7352892 C26.0618086,14.7352892 23.264728,11.9381006 23.264728,8.5 C23.264728,7.25035732 23.6328126,6.04517394 24.3289163,5.01472601 C24.679036,4.49659409 24.5426845,3.79261191 24.0245486,3.44249483 C23.5062835,3.09250699 22.8024252,3.22859901 22.4523055,3.74686018 C21.5022389,5.15301514 21,6.79671725 21,8.50012924 C20.9998708,13.1869678 24.8129319,17 29.4999354,17 Z" id="Shape" fill="#434C54"></path>
                </g>
            </g>
        </g>
    </g>
</svg>