<?xml version="1.0" encoding="UTF-8"?>
<svg width="77px" height="80px" viewBox="0 0 77 80" version="1.1" xmlns="http://www.w3.org/2000/svg" xmlns:xlink="http://www.w3.org/1999/xlink">
    <!-- Generator: Sketch 50 (54983) - http://www.bohemiancoding.com/sketch -->
    <title>004-employees</title>
    <desc>Created with Sketch.</desc>
    <defs></defs>
    <g id="Page-1" stroke="none" stroke-width="1" fill="none" fill-rule="evenodd">
        <g id="2.1.-Home-V1" transform="translate(-1007.000000, -646.000000)" fill-rule="nonzero">
            <g id="Icones" transform="translate(134.000000, 646.000000)">
                <g id="004-employees" transform="translate(873.000000, 0.000000)">
                    <path d="M27.7254195,17.4124915 C26.3049598,20.3453977 24.2005284,22 24.2005284,22 L5.6998569,22 C5.6998569,22 3.14927461,20.829505 1.80609094,17.678441 C0.930190736,15.6235649 0.567624193,12.725907 1.76004074,8.761911 C4.78042979,-1.28145063 25.0179196,-1.4343517 28.1901797,7.46836477 C29.6417075,11.5452503 28.9277716,14.9349544 27.7254195,17.4124915 Z" id="Shape" fill="#FAD961"></path>
                    <g id="Group" transform="translate(2.000000, 16.000000)" fill="#FFA816">
                        <path d="M25.8637431,0.961333333 C24.4463814,3.9859883 22.3465397,5.69235088 22.3465397,5.69235088 L17.4206294,5.69235088 C17.4206294,2.56666667 19.8649371,0.0245614035 22.8686676,0.0245614035 C23.9739799,0.0245614035 25.0047026,0.368748538 25.8637431,0.961333333 Z" id="Shape"></path>
                        <path d="M8.81102656,5.69218713 L3.88621789,5.69218713 C3.88621789,5.69218713 1.34119837,4.48507602 0.000944173442,1.2354386 C0.92717832,0.477309942 2.09590768,0.0245614035 3.36408997,0.0245614035 C6.36797778,0.0245614035 8.81102656,2.56683041 8.81102656,5.69218713 Z" id="Shape"></path>
                    </g>
                    <path d="M3,46.9998448 C3,44.5451088 3.7378048,42.2598898 5.00385486,40.3587229 C7.15502231,37.1288971 10.82961,35 15.0007761,35 C18.3138348,35 21.3144169,36.3434064 23.4862299,38.5140617 C24.0486256,39.0764793 24.5559149,39.6952472 24.9961451,40.3602753 C26.2621952,42.2615974 27,44.545264 27,47 L3,46.9998448 Z" id="Shape" fill="#0FACF3"></path>
                    <path d="M25,40.2860509 L20.4252527,44.5245359 C19.7317422,45.1671899 18.6498595,45.1569332 17.9697036,44.5024916 L15.0007764,41.6460646 L12.0318493,44.5024916 C11.3516934,45.1567801 10.2682578,45.1670368 9.57630014,44.5245359 L5,40.28452 C7.1519636,37.0994179 10.8279112,35 15.0006211,35 C18.314906,35 21.3165986,36.3248041 23.4892153,38.4654021 C24.0519745,39.0198786 24.5594515,39.6302315 25,40.2860509 Z" id="Shape" fill="#0FACF3"></path>
                    <path d="M23,38.7460611 L18.6693142,43 L14.4999232,38.7460611 L10.3306858,43 L6,38.7460611 C8.15535797,36.4343576 11.1681893,35 14.4999232,35 C17.7792748,35 20.7486333,36.3889168 22.8964642,38.6362323 C22.9311809,38.6721996 22.9655905,38.7081669 23,38.7460611 Z" id="Shape" fill="#0FACF3"></path>
                    <g id="Group" transform="translate(2.000000, 18.000000)" fill="#E4EAF8">
                        <path d="M13.4036855,20.9415302 C11.924192,20.9415302 10.7247634,19.7211468 10.7247634,18.2158057 L10.7247634,13.5147986 L16.0826077,13.5147986 L16.0826077,18.2158057 C16.0826077,19.7211468 14.883179,20.9415302 13.4036855,20.9415302 Z" id="Shape"></path>
                        <ellipse id="Oval" cx="23.049808" cy="3.78261533" rx="3.56198703" ry="3.62421702"></ellipse>
                        <ellipse id="Oval" cx="3.65664582" cy="3.78261533" rx="3.56198703" ry="3.62421702"></ellipse>
                    </g>
                    <path d="M24,12 L23.5474731,17.5588282 L22.9378187,25.0422045 C22.5720567,29.5406218 18.9035532,33 14.4992335,33 C10.0962935,33 6.42794326,29.5406218 6.06218131,25.0422045 L5.4230943,17.1958244 L5,12 L24,12 Z" id="Shape" fill="#FFFFFF"></path>
                    <path d="M24,12 L23.5474767,17.578311 C22.0959377,17.8594896 20.6224777,18 19.129856,18 C14.2170963,18 10.2874097,16.4629011 8.22622131,15.4458959 C7.54452378,16.0278077 6.61019807,16.686677 5.42309089,17.2141825 L5,12 L24,12 Z" id="Shape" fill="#E4EAF8"></path>
                    <g id="Group" transform="translate(4.000000, 10.000000)">
                        <path d="M18.8794322,0.0461848723 C21.8994292,2.29235049 27.1843845,3.37118571 27.1843845,3.37118571 C14.9532944,10.2792337 4.0811792,3.44418261 4.0811792,3.44418261 C4.0811792,3.44418261 2.69021904,5.22462494 0.0097688638,6.13437393 L0.0097688638,0.0461848723 L18.8794322,0.0461848723 Z" id="Shape" fill="#FFC843"></path>
                        <path d="M68.1260079,40.4692619 C66.5445549,43.6594277 64.2016032,45.4592429 64.2016032,45.4592429 L43.6044265,45.4592429 C43.6044265,45.4592429 40.7648384,44.1862142 39.2694144,40.7586148 C38.2942612,38.5236079 37.8905866,35.3715679 39.2180491,31.0599466 C42.5805866,20.1358294 65.111368,19.9693779 68.643285,29.6531678 C70.2595592,34.0875354 69.4646573,37.7744211 68.1260079,40.4692619 Z" id="Shape" fill="#FAD961"></path>
                    </g>
                    <g id="Group" transform="translate(43.000000, 49.000000)" fill="#FFA816">
                        <path d="M28.9672866,1.06001063 C27.381767,4.12408293 25.0327906,5.85275917 25.0327906,5.85275917 L19.5225689,5.85275917 C19.5225689,2.68642212 22.256828,0.111196172 25.6169543,0.111196172 C26.8533658,0.111196172 28.0063704,0.459819245 28.9672866,1.06001063 Z" id="Shape"></path>
                        <path d="M9.89160764,5.85261031 L4.38280772,5.85261031 C4.38280772,5.85261031 1.5359178,4.62989899 0.0366484553,1.33777778 C1.07275715,0.569824561 2.38009602,0.111047315 3.79864398,0.111047315 C7.15861228,0.111196172 9.89160764,2.68627326 9.89160764,5.85261031 Z" id="Shape"></path>
                    </g>
                    <path d="M70,79 L45,79 C45.3620967,77.9997502 45.8297727,77.0524832 46.3920367,76.1748965 C48.7830516,72.4534216 52.8662765,70 57.500774,70 C61.1836646,70 64.5173076,71.5474169 66.9318534,74.0498073 C67.5560406,74.69716 68.1201622,75.4105002 68.6095114,76.1766626 C69.172085,77.0524832 69.639761,77.9997502 70,79 Z" id="Shape" fill="#FAD961"></path>
                    <g id="Group" transform="translate(43.000000, 51.000000)" fill="#E4EAF8">
                        <path d="M14.9995779,22.9770224 C13.3437477,22.9770224 12.0015478,21.6366111 12.0015478,19.9829873 L12.0015478,14.8192183 L17.9976079,14.8192183 L17.9976079,19.9829873 C17.9972936,21.6366111 16.6552509,22.9770224 14.9995779,22.9770224 Z" id="Shape"></path>
                        <ellipse id="Oval" cx="25.7954714" cy="4.12997953" rx="3.98621717" ry="3.98090546"></ellipse>
                        <ellipse id="Oval" cx="4.09290807" cy="4.12997953" rx="3.98621717" ry="3.98090546"></ellipse>
                    </g>
                    <path d="M69,45 L68.5442849,50.2992687 L68.475633,51.0892937 L67.7703179,59.2848576 C67.7451509,59.5812521 67.7058074,59.8736309 67.6524468,60.1606038 C66.8334021,64.6534755 62.7918576,68 57.9986461,68 C53.2361766,68 49.2156577,64.6928609 48.3630038,60.2407647 C48.3013604,59.9279982 48.2578756,59.6084358 48.2298414,59.2848576 L47.4907578,50.690806 L47.4487065,50.2067516 L47,45 L69,45 Z" id="Shape" fill="#FFFFFF"></path>
                    <g id="Group" transform="translate(47.000000, 45.000000)" fill="#E4EAF8">
                        <path d="M0.836023534,9.82929175 L1.22454899,14.3986134 C1.25230081,14.7225965 1.29534767,15.0425588 1.35637013,15.3557167 C2.41425053,16.0582729 3.68862666,16.4680845 5.0588727,16.4680845 C7.54392191,16.4680845 9.71092897,15.1187992 10.8451269,13.1281975 C11.9779056,15.1187992 14.1463318,16.4680845 16.631381,16.4680845 C18.053031,16.4680845 19.3718731,16.0268798 20.4518288,15.2754555 C20.5046519,14.9881235 20.5434414,14.6953788 20.5685126,14.3986134 L20.9573534,9.82929175 L0.836023534,9.82929175 Z" id="Shape"></path>
                        <path d="M21.7856506,0.0964990253 L21.2670385,6.19233008 C19.6033485,6.49945679 17.9142719,6.65317479 16.2034354,6.65317479 C10.5723391,6.65317479 6.06787206,4.97356595 3.70534082,3.86212606 C2.92403252,4.49802989 1.85306461,5.21806108 0.492437099,5.79442625 L0.007410997,0.0966536712 L21.7856506,0.0966536712 L21.7856506,0.0964990253 Z" id="Shape"></path>
                    </g>
                    <path d="M66.8315252,42 C70.165587,44.4512787 76,45.6286514 76,45.6286514 C62.4971981,53.1675097 50.4947942,45.7081851 50.4947942,45.7081851 C50.4947942,45.7081851 48.9591184,47.6512978 46,48.6441037 L46,42 L66.8315252,42 Z" id="Shape" fill="#FFC843"></path>
                    <g id="Group" transform="translate(47.000000, 50.000000)" fill="#FFFFFF">
                        <ellipse id="Oval" cx="4.6197771" cy="4.52528509" rx="4.57576863" ry="4.42120614"></ellipse>
                        <ellipse id="Oval" cx="16.2794793" cy="4.52528509" rx="4.57576863" ry="4.42120614"></ellipse>
                    </g>
                    <path d="M13.8957034,46.8350408 C13.8957034,46.1915174 13.3756239,45.6700816 12.7341201,45.6700816 L4.15636971,45.6700816 C4.37164981,43.6355969 5.15114963,41.7261512 6.41557174,40.1236334 L9.90744595,43.4151867 C10.3607732,43.8424937 11.069339,43.8355039 11.5143028,43.3999645 L14.9067455,40.0787436 L18.2991882,43.3999645 C18.5245353,43.6206855 18.8174092,43.7312789 19.1105928,43.7312789 C19.3963423,43.7312789 19.6822467,43.6261219 19.906045,43.4151867 L23.3824315,40.1382342 C24.6177366,41.7117057 25.4289863,43.6216174 25.6538688,45.6700816 L17.0307392,45.6700816 C16.3892355,45.6700816 15.869156,46.1915174 15.869156,46.8350408 C15.869156,47.4785643 16.3892355,48 17.0307392,48 L26.8792618,48 C27.5207655,48 28.040845,47.4785643 28.040845,46.8350408 C28.040845,43.8296015 27.0048676,40.8900212 25.1235673,38.5577729 C24.8760727,38.2510003 24.6144841,37.9571199 24.3415895,37.6750445 C24.3350846,37.6678994 24.3296639,37.660133 24.3230042,37.6529879 C24.2954359,37.623631 24.2667835,37.5959826 24.2372019,37.5701982 C22.7023632,36.0187832 20.7987605,34.865163 18.7203008,34.2315805 L18.7203008,33.3928099 C19.7081112,32.9633283 20.6268462,32.3690438 21.4360825,31.6223826 C22.9493932,30.2258295 23.9672499,28.40461 24.3736492,26.40787 C24.4010626,26.408336 24.4281662,26.4109766 24.4555795,26.4109766 C27.0406444,26.4109766 29.1437296,24.3017791 29.1437296,21.7092013 C29.1437296,20.5246708 28.7038768,19.4420354 27.9804427,18.6142931 C28.6677902,17.4173364 29.1669613,16.1655489 29.4700571,14.8766381 C30.1140389,14.5760786 30.7634413,14.2399491 31.4167158,13.8635896 C31.8351955,13.622676 32.0614719,13.147528 31.985427,12.6695841 C31.909382,12.1919508 31.5468131,11.8109315 31.0744359,11.712609 C31.0589481,11.7093471 30.5619454,11.6041901 29.8035089,11.3972934 C29.7486822,9.97464522 29.4661851,8.53289174 28.9530751,7.09843868 C28.11689,4.76013262 26.2095703,2.85721064 23.4372582,1.59548219 C21.0158991,0.493741464 17.9892777,-0.0699434493 14.918826,0.00694385628 C7.82697286,0.18557093 2.28188406,3.48784187 0.792114786,8.42027902 C-0.72088615,13.4306908 0.183909783,16.8620392 1.42107341,19.0147284 C0.886745104,19.7783203 0.571878597,20.7071811 0.571878597,21.7088907 C0.571878597,24.3013132 2.67434433,26.4106659 5.25847992,26.4106659 C5.28604816,26.4106659 5.31330665,26.4080253 5.34087489,26.4075593 C5.74727416,28.4044547 6.76513087,30.2256742 8.27844156,31.6220719 C9.11462664,32.3935856 10.0680542,33.0016943 11.0934999,33.4341271 L11.0934999,34.228008 C9.03455483,34.8518048 7.15666187,35.9787086 5.61872561,37.5209592 C5.58651104,37.5532674 5.55661963,37.5872842 5.52471481,37.6199031 C5.51340873,37.6310867 5.50163802,37.6410277 5.4906417,37.6526773 C5.4822783,37.661531 5.4753088,37.6711613 5.46725515,37.6801703 C3.08446066,40.1491071 1.77202644,43.3900236 1.77202644,46.8345748 C1.77202644,47.4780983 2.29210599,47.999534 2.93360971,47.999534 L12.7341201,47.999534 C13.3756239,48 13.8957034,47.4785643 13.8957034,46.8350408 Z M10.6877202,40.9533949 L8.04194321,38.4594503 C8.98607809,37.6798597 10.0500884,37.0695764 11.1916924,36.6517444 C11.4088311,37.5948953 11.9741349,38.4055516 12.7446518,38.9395688 L10.6877202,40.9533949 Z M19.1256159,40.9533949 L17.0685294,38.9394135 C17.8385817,38.4058622 18.4035758,37.5959826 18.6210242,36.6537636 C19.7759477,37.0799833 20.8342275,37.698965 21.7610161,38.4690807 L19.1256159,40.9533949 Z M24.6386451,24.0718939 L25.0270785,19.4105039 C26.0551571,19.6680375 26.8200984,20.5996942 26.8200984,21.7093567 C26.8202533,22.9550863 25.8570685,23.9774545 24.6386451,24.0718939 Z M26.0556218,17.2901229 C25.7883027,17.1924216 25.5095228,17.1192622 25.2220696,17.0717318 L25.2796841,16.3812994 C25.7435431,16.2626289 26.2126678,16.1278043 26.6867487,15.9743403 C26.5063161,16.4196654 26.2950628,16.8584666 26.0556218,17.2901229 Z M3.01538518,9.09611067 C4.46628013,4.29259567 10.3658841,2.45258149 14.97706,2.3362409 C19.8145123,2.21306588 25.3346658,3.88299602 26.7660461,7.88579575 C27.0962455,8.8089094 27.3144683,9.73155707 27.41994,10.6436424 C26.0317706,10.1383608 24.5128843,9.4549181 23.3749973,8.59191634 C22.8632812,8.20390727 22.1345813,8.30533638 21.7478515,8.81853973 C21.3609668,9.33174308 21.462102,10.0624055 21.9738181,10.4504145 C23.6071591,11.6891545 25.8150966,12.5853964 27.5892214,13.1667887 C26.4327491,13.6495478 25.258311,14.022024 24.0688497,14.2898093 C23.978556,14.2992843 23.8910501,14.319477 23.8075709,14.3489893 C21.0445515,14.9333328 18.1989822,14.9398566 15.2950241,14.3626581 C11.356947,13.5801162 8.77792237,11.9602016 8.75422607,11.9451348 C8.24653674,11.6198782 7.57483185,11.7376168 7.20761666,12.2168033 C7.19600083,12.2320254 5.99012251,13.7456957 3.74764727,14.5217139 C3.14114593,14.7317172 2.81915504,15.3946566 3.02839491,16.0029206 C3.23314332,16.5978264 3.87015559,16.9185785 4.46566062,16.7357576 L4.49353861,17.0714212 C4.047026,17.1453573 3.62126701,17.2817351 3.22648358,17.4730991 C2.08487953,15.2293877 2.01208698,12.4184189 3.01538518,9.09611067 Z M2.89489027,21.7093567 C2.89489027,20.5989176 3.66184499,19.6641543 4.68791022,19.4087953 L5.07572415,24.0718939 C3.85776537,23.9777652 2.89489027,22.955397 2.89489027,21.7093567 Z M7.48964908,25.0684776 L7.48128568,24.9670485 C7.48097592,24.9636313 7.48082104,24.9603694 7.48051129,24.9569522 L6.91365865,18.1405431 C6.91350377,18.1369705 6.91303914,18.133398 6.91272938,18.1296701 L6.70751634,15.6622866 C7.4114358,15.2177381 7.96109701,14.7581229 8.34953046,14.3889085 C9.49872351,14.9929787 11.7529695,16.0209387 14.7444336,16.6279601 C16.1065836,16.9042884 17.7162282,17.1076126 19.5039823,17.1076126 C20.5792987,17.1076126 21.719354,17.0338318 22.9086604,16.8584666 L22.8033435,18.1226803 C22.8028788,18.1299808 22.8019496,18.1371258 22.8014849,18.1444263 L22.2244104,25.0683223 C21.9078402,28.880224 18.6716692,31.8660921 14.8570297,31.8660921 C11.0423902,31.8662474 7.80621924,28.8803794 7.48964908,25.0684776 Z M14.8568748,34.1961657 C15.3766446,34.1961657 15.8909937,34.1523633 16.3968245,34.0712821 L16.3968245,35.7913832 C16.3968245,36.615553 15.7283721,37.2859481 14.9065906,37.2859481 C14.0848092,37.2859481 13.4163567,36.615553 13.4163567,35.7913832 L13.4163567,35.1293757 C13.4163567,35.1169495 13.4166665,35.1046786 13.4163567,35.092097 L13.4163567,34.0875915 C13.8901278,34.1585764 14.3711782,34.1961657 14.8568748,34.1961657 Z" id="Shape" fill="#434C54"></path>
                    <g id="Group" transform="translate(9.000000, 20.000000)" fill="#969BA1">
                        <path d="M1.23883856,0.0758333333 C0.594206736,0.0758333333 0.0715911731,0.591162281 0.0715911731,1.22714912 L0.0715911731,1.41442982 C0.0715911731,2.05041667 0.594206736,2.56574561 1.23883856,2.56574561 C1.88347038,2.56574561 2.40608595,2.05041667 2.40608595,1.41442982 L2.40608595,1.22714912 C2.40608595,0.591162281 1.88362602,0.0758333333 1.23883856,0.0758333333 Z" id="Shape"></path>
                        <path d="M10.3639117,2.56574561 C11.0085436,2.56574561 11.5311591,2.05041667 11.5311591,1.41442982 L11.5311591,1.22714912 C11.5311591,0.591162281 11.0085436,0.0758333333 10.3639117,0.0758333333 C9.71927991,0.0758333333 9.19666434,0.591162281 9.19666434,1.22714912 L9.19666434,1.41442982 C9.19666434,2.05026316 9.71927991,2.56574561 10.3639117,2.56574561 Z" id="Shape"></path>
                        <path d="M8.79186295,7.81758772 C9.30389547,7.43120614 9.40147735,6.70864035 9.00974913,6.20359649 C8.61817654,5.69855263 7.88561208,5.60260965 7.37342393,5.98868421 C7.03570035,6.24335526 6.50530314,6.39548246 5.95467364,6.39548246 C5.40404413,6.39548246 4.87364692,6.24335526 4.53592334,5.98868421 C4.02373519,5.60260965 3.29117073,5.69885965 2.89959814,6.20359649 C2.50786992,6.70864035 2.6054518,7.43120614 3.11748432,7.81758772 C3.87012544,8.38541667 4.87784901,8.69811404 5.954518,8.69811404 C7.03118699,8.69811404 8.0390662,8.38557018 8.79186295,7.81758772 Z" id="Shape"></path>
                    </g>
                    <path d="M76.9853229,45.1284306 C76.9082869,44.6462767 76.5394908,44.2616511 76.0593156,44.1620844 C76.0410412,44.1583212 75.4335754,44.0299036 74.5179655,43.7791836 C74.4664507,42.1636934 74.1444434,40.5218612 73.5552519,38.8852033 C72.6396421,36.3458591 70.566917,34.2616996 67.5609379,32.8582004 C62.698218,30.5880785 55.8001095,30.3785963 50.3949869,32.3365334 C49.7816922,32.5587162 49.4656714,33.2335749 49.6889024,33.8438329 C49.911976,34.4542476 50.5901763,34.7680005 51.2033135,34.5466017 C56.0565811,32.7882685 62.2267073,32.9656071 66.557422,34.9876745 C68.2479603,35.776839 70.4484486,37.2316112 71.3308179,39.6790717 C71.7347449,40.8009617 71.9891685,41.9203429 72.0989723,43.0240442 C70.460579,42.4448323 68.6317225,41.6454759 67.2781575,40.6267591 C66.757495,40.234764 66.0164371,40.3374667 65.6230652,40.8555274 C65.2295357,41.3735881 65.3324079,42.1111661 65.8529129,42.5028476 C67.7983474,43.9668708 70.4705039,45.0033058 72.5230641,45.6485297 C71.0929358,46.2649028 69.6391768,46.7376489 68.1644653,47.0662976 C68.084121,47.0742943 68.0058247,47.0902877 67.9306792,47.1136506 C64.7613333,47.7866277 61.4969922,47.7993284 58.1641221,47.1406198 C53.6782326,46.2542405 50.7418852,44.4220555 50.7143161,44.4048077 C50.1980647,44.0764726 49.5149807,44.1954823 49.1411434,44.6790475 C49.1279103,44.6962953 47.7354335,46.4312655 45.1563818,47.3168608 C44.5394637,47.528695 44.2121002,48.1980658 44.4247762,48.8120869 C44.6376098,49.4257944 45.3101388,49.7524047 45.9270569,49.540257 C45.9673865,49.5264587 46.0058258,49.5114061 46.0456828,49.4971375 L46.1022389,50.1730938 C45.5202942,50.2543152 44.9693844,50.4324378 44.465736,50.6903705 C43.1178425,48.1273499 43.005518,44.8229881 44.1541262,41.0485458 C44.6963714,39.2649681 45.8323766,37.7245842 47.5304768,36.4700432 C48.05429,36.082752 48.1639364,35.3462716 47.7749755,34.8247614 C47.3860146,34.3032511 46.6460595,34.1942765 46.1219311,34.5814108 C44.0079311,36.1434329 42.584892,38.0900805 41.8925133,40.3669447 C40.1726729,46.0185731 41.2259708,49.8627905 42.6356192,52.2530198 C42.0152353,53.1028651 41.6480146,54.14714 41.6480146,55.2757723 C41.6480146,58.1177367 43.9701221,60.4297237 46.8245498,60.4297237 C46.8922911,60.4297237 46.9595597,60.4247061 47.0269859,60.4220406 C47.466989,62.6852634 48.6171727,64.7507639 50.3400063,66.3279954 C51.2984663,67.2054372 52.3942994,67.8926829 53.57347,68.3746801 L53.57347,69.4614473 C52.1331017,69.8849588 50.7691393,70.522186 49.5104121,71.3688954 C48.9697423,71.7326668 48.8278007,72.4636593 49.1931309,73.0017901 C49.4215608,73.3381219 49.7938226,73.5193804 50.1731737,73.5193804 C50.4008158,73.5193804 50.6309786,73.4539956 50.8337298,73.3175814 C51.7159416,72.723944 52.6597506,72.2541771 53.6500334,71.9074966 C54.0226103,73.8282726 55.7237037,75.2836719 57.7606677,75.2836719 C59.7987345,75.2836719 61.500458,73.8267046 61.8719322,71.9045175 C63.6111497,72.5114827 65.199446,73.5024462 66.5218184,74.8176682 C67.3596046,75.6523041 68.0781346,76.6122217 68.6455858,77.6478727 L46.8759071,77.6478727 C47.1671946,77.1164841 47.4988117,76.6050089 47.8687105,76.1168967 C48.2617673,75.5983656 48.1579499,74.8609444 47.6369723,74.4698901 C47.1159948,74.078679 46.3750944,74.1820089 45.9821951,74.70054 C45.1182577,75.8406185 44.4291873,77.0898285 43.9340459,78.4136743 C43.799036,78.7746234 43.8502358,79.1785351 44.0709463,79.4949535 C44.2916568,79.811372 44.6541513,80 45.0412217,80 L70.4799562,80 C70.866869,80 71.2293636,79.8115288 71.4500741,79.4951103 C71.6709421,79.1788487 71.7222994,78.7750938 71.587447,78.4141447 C70.8569442,76.4584028 69.6832874,74.6401728 68.192507,73.1546682 C66.4406865,71.4123284 64.2967543,70.1471251 61.9477079,69.4583113 L61.9477079,68.3285815 C63.0843432,67.8490931 64.1412645,67.1778407 65.0693198,66.3281521 C66.7921533,64.7509207 67.9421794,62.6854202 68.382025,60.4221974 C68.4494512,60.4248629 68.5167199,60.4298805 68.5844611,60.4298805 C71.4388889,60.4298805 73.7611539,58.1178934 73.7611539,55.2759291 C73.7611539,53.942989 73.2502587,52.7267066 72.4132603,51.8108493 C73.222217,50.4311834 73.8046343,48.9853487 74.1515326,47.495297 C74.8971591,47.1519093 75.6495597,46.7660293 76.4063714,46.3335803 C76.8323537,46.090073 77.0622013,45.6105846 76.9853229,45.1284306 Z M63.4339196,51.3333993 C65.2843589,51.3333993 66.7897903,52.8317613 66.7897903,54.6733542 C66.7897903,56.5151039 65.2843589,58.013466 63.4339196,58.013466 C61.583638,58.013466 60.0782066,56.5151039 60.0782066,54.6733542 C60.0783641,52.8316045 61.583638,51.3333993 63.4339196,51.3333993 Z M66.9358278,50.1781114 C66.7357548,50.0233517 66.5252843,49.8817631 66.3053615,49.7541295 C66.5282775,49.7259058 66.7529264,49.6945462 66.9791507,49.6598939 L66.9358278,50.1781114 Z M50.305663,46.8770423 C51.5705342,47.5446884 54.1503735,48.7321199 57.6036025,49.427676 C58.4585602,49.5998402 59.4026844,49.7447216 60.4169129,49.8411524 C59.1170683,50.6480351 58.1647522,51.9588666 57.8386489,53.497369 L57.4679624,53.497369 C56.9220939,50.921334 54.620939,48.9814288 51.8726917,48.9814288 C50.5980532,48.9814288 49.4195128,49.3989819 48.4676693,50.1034755 L48.3255702,48.404412 C49.1940762,47.8687899 49.855735,47.3094913 50.305663,46.8770423 Z M48.5169786,54.6731974 C48.5169786,52.8316045 50.02241,51.3332425 51.8728492,51.3332425 C53.7231309,51.3332425 55.2285623,52.8316045 55.2285623,54.6731974 C55.2285623,56.5149471 53.7231309,58.0133092 51.8728492,58.0133092 C50.0222525,58.0133092 48.5169786,56.5149471 48.5169786,54.6731974 Z M44.0110819,55.2756155 C44.0110819,53.9097478 44.9982139,52.7706101 46.2988461,52.5244372 L46.3539843,53.1837729 C46.2243307,53.6588709 46.1540689,54.1578023 46.1540689,54.6731974 C46.1540689,55.521318 46.3427992,56.3258487 46.6783547,57.0496284 L46.7640553,58.0744604 C45.2406646,58.0420032 44.0110819,56.8001628 44.0110819,55.2756155 Z M59.5852707,70.3407707 C59.5852707,70.344377 59.5852707,70.3479834 59.5852707,70.3515897 L59.5852707,71.1158233 C59.5852707,72.1171356 58.7670193,72.9315446 57.7609828,72.9315446 C56.7549463,72.9315446 55.9366948,72.1171356 55.9366948,71.1158233 L55.9366948,69.0406014 C56.5175368,69.1354642 57.1084611,69.1867371 57.705687,69.1867371 C58.3408795,69.1867371 58.9689828,69.1296626 59.5852707,69.0225696 L59.5852707,70.3407707 Z M57.705687,66.8347666 C53.5488941,66.8347666 49.9891695,63.7781457 49.307976,59.7583145 C50.0800688,60.1457624 50.9509379,60.3652797 51.8730068,60.3652797 C54.6214116,60.3652797 56.922409,58.4253744 57.4682775,55.8491827 L57.838964,55.8491827 C58.3848325,58.4253744 60.6859875,60.3652797 63.4342347,60.3652797 C64.4008868,60.3652797 65.3117705,60.1244379 66.1109598,59.70124 C65.453397,63.7491381 61.8810694,66.8347666 57.705687,66.8347666 Z M68.6457433,58.0744604 L68.7568075,56.7506146 C69.0115461,56.1064883 69.1530151,55.4062282 69.1530151,54.6731974 C69.1530151,54.2702265 69.1100073,53.8771338 69.029663,53.4975258 L69.11111,52.5244372 C70.4118998,52.7706101 71.3988743,53.9097478 71.3988743,55.2756155 C71.3987167,56.8001628 70.1689765,58.0420032 68.6457433,58.0744604 Z M70.4579009,50.4722645 C70.0925707,50.330519 69.7075482,50.2289139 69.3075597,50.1730938 L69.3910548,49.1750743 C70.0328638,49.0145131 70.6841252,48.8255715 71.3431059,48.6060543 C71.1006552,49.2399887 70.8052718,49.8627905 70.4579009,50.4722645 Z" id="Shape" fill="#434C54"></path>
                    <g id="Group" transform="translate(51.000000, 53.000000)" fill="#969BA1">
                        <path d="M1.2860258,2.66415102 C1.9238047,2.66415102 2.44058572,2.13375398 2.44058572,1.47917103 L2.44058572,1.26445265 C2.44058572,0.609869703 1.9238047,0.0794726583 1.2860258,0.0794726583 C0.648246907,0.0794726583 0.131465889,0.609869703 0.131465889,1.26445265 L0.131465889,1.47917103 C0.131465889,2.13359598 0.648246907,2.66415102 1.2860258,2.66415102 Z" id="Shape"></path>
                        <path d="M11.343936,2.66415102 C11.9817149,2.66415102 12.4984959,2.13375398 12.4984959,1.47917103 L12.4984959,1.26445265 C12.4984959,0.609869703 11.9817149,0.0794726583 11.343936,0.0794726583 C10.7061571,0.0794726583 10.1893761,0.609869703 10.1893761,1.26445265 L10.1893761,1.47917103 C10.1893761,2.13359598 10.7061571,2.66415102 11.343936,2.66415102 Z" id="Shape"></path>
                        <path d="M8.12825574,7.94742382 C7.72770042,8.26168052 7.1285608,8.44195547 6.48400848,8.44195547 C5.83945617,8.44195547 5.24031654,8.26168052 4.83976122,7.94742382 C4.33314033,7.54974454 3.60853853,7.64912486 3.22122216,8.16893608 C2.8339058,8.6889053 2.93058095,9.43259875 3.4370479,9.83012004 C4.24385437,10.4632153 5.32590792,10.8119155 6.48385454,10.8119155 C7.64180117,10.8119155 8.72385472,10.4632153 9.53066119,9.83012004 C10.0371281,9.43259875 10.1338033,8.6889053 9.74648692,8.16893608 C9.3593245,7.64944085 8.63487663,7.55006053 8.12825574,7.94742382 Z" id="Shape"></path>
                    </g>
                    <g id="Group" transform="translate(9.000000, 7.000000)" fill="#0FACF3">
                        <path d="M28.8928072,2.45053038 C39.5702251,2.91319603 49.3270216,8.59330181 54.9923241,17.6445706 C55.0028518,17.6614859 55.0155793,17.6762085 55.0267355,17.6923407 L51.4137008,16.4879064 C50.7968105,16.28179 50.1288532,16.6141449 49.9223851,17.2292052 C49.715917,17.8445787 50.0490314,18.5100717 50.6660788,18.7157183 L56.4101032,20.6305965 C56.5340783,20.6721017 56.6600962,20.6916796 56.7840713,20.6916796 C57.2769864,20.6916796 57.7365901,20.3809387 57.9014189,19.8892977 L59.8224836,14.1637712 C60.0289517,13.5483977 59.6958372,12.8829047 59.0787899,12.6772581 C58.4618996,12.4716115 57.7939423,12.8033399 57.5874742,13.4185568 L56.7251477,15.9885909 C50.6121834,6.52148691 40.2851642,0.592663107 28.9952556,0.103214849 C28.3448968,0.0720467836 27.7949437,0.577627257 27.7666604,1.22573506 C27.7383771,1.87415611 28.2426055,2.42233816 28.8928072,2.45053038 Z" id="Shape"></path>
                        <path d="M31.1275023,63.6442492 C20.4500844,63.1814269 10.6931309,57.5013211 5.02798546,48.450209 C5.01761492,48.4337635 5.00598734,48.4187277 4.99498827,48.4029087 L8.60645169,49.6068731 C9.22412758,49.8136161 9.89145638,49.4806346 10.0979245,48.8655744 C10.3043926,48.2502009 9.97127814,47.5847079 9.35407364,47.3790613 L3.61020638,45.4641831 C3.31386023,45.3648838 2.99017355,45.3879074 2.71048311,45.5268324 C2.43079268,45.6659141 2.21788227,45.9099334 2.11873358,46.2054818 L0.197668856,51.9310084 C-0.00879924953,52.5463819 0.324315197,53.2118749 0.9415197,53.4175215 C1.06565197,53.4590267 1.19151266,53.4786046 1.3154878,53.4786046 C1.80840291,53.4786046 2.26800657,53.1678637 2.4329925,52.6762227 L3.29531895,50.1061887 C9.40844043,59.573136 19.7353025,65.5021165 31.0252111,65.9915647 C31.0426524,65.9923478 31.0600938,65.9926611 31.077378,65.9926611 C31.7044817,65.9926611 32.2263086,65.4997671 32.2538063,64.8690445 C32.2819325,64.2207801 31.777704,63.672598 31.1275023,63.6442492 Z" id="Shape"></path>
                    </g>
                </g>
            </g>
        </g>
    </g>
</svg>